<?xml version="1.0" encoding="UTF-8"?>
<svg xmlns="http://www.w3.org/2000/svg" xmlns:xlink="http://www.w3.org/1999/xlink" width="24px" height="24px" viewBox="0 0 24 24" version="1.1">
<g id="surface1">
<path style=" stroke:none;fill-rule:evenodd;fill:rgb(59.607843%,59.607843%,59.607843%);fill-opacity:1;" d="M 5.730469 8.035156 C 5.71875 8.054688 5.742188 8.261719 5.785156 8.53125 C 5.800781 8.625 5.820312 8.757812 5.832031 8.832031 C 5.863281 9.035156 5.902344 9.285156 5.929688 9.457031 C 5.941406 9.542969 5.96875 9.714844 5.988281 9.839844 C 6.007812 9.964844 6.042969 10.207031 6.070312 10.378906 C 6.101562 10.550781 6.132812 10.761719 6.144531 10.847656 C 6.15625 10.933594 6.175781 11.074219 6.191406 11.160156 C 6.207031 11.246094 6.226562 11.398438 6.242188 11.496094 C 6.257812 11.59375 6.277344 11.734375 6.289062 11.808594 C 6.308594 11.929688 6.328125 12.046875 6.386719 12.433594 C 6.402344 12.519531 6.421875 12.648438 6.433594 12.726562 C 6.46875 12.9375 6.5 13.148438 6.527344 13.320312 C 6.539062 13.40625 6.5625 13.546875 6.578125 13.632812 C 6.589844 13.71875 6.609375 13.851562 6.621094 13.933594 C 6.632812 14.011719 6.65625 14.144531 6.667969 14.230469 C 6.683594 14.316406 6.703125 14.425781 6.707031 14.472656 C 6.757812 14.8125 6.773438 14.90625 6.792969 15.011719 C 6.804688 15.078125 6.824219 15.214844 6.839844 15.3125 C 6.855469 15.410156 6.875 15.550781 6.886719 15.625 C 6.902344 15.695312 6.921875 15.832031 6.9375 15.925781 C 6.949219 16.015625 6.972656 16.15625 6.984375 16.234375 C 7.015625 16.414062 7.113281 17.074219 7.15625 17.359375 L 7.1875 17.566406 L 21.660156 17.566406 L 21.820312 17.40625 C 22.136719 17.082031 22.308594 16.746094 22.382812 16.296875 C 22.410156 16.125 22.414062 15.40625 22.414062 12.070312 L 22.414062 8.046875 L 22.363281 8.03125 C 22.28125 8.011719 5.742188 8.011719 5.730469 8.035156 M 11.054688 8.867188 C 11.203125 8.980469 11.207031 9.003906 11.207031 9.691406 C 11.207031 10.035156 11.214844 10.332031 11.222656 10.355469 C 11.234375 10.386719 11.398438 10.390625 12.804688 10.390625 L 14.375 10.390625 L 14.375 9.757812 C 14.375 8.984375 14.421875 8.851562 14.703125 8.796875 C 15.132812 8.714844 15.238281 8.925781 15.238281 9.832031 L 15.238281 10.390625 L 18.359375 10.390625 L 18.371094 10.339844 C 18.378906 10.308594 18.386719 10.003906 18.390625 9.660156 C 18.394531 9.050781 18.398438 9.035156 18.449219 8.976562 C 18.480469 8.945312 18.503906 8.914062 18.503906 8.90625 C 18.503906 8.792969 18.910156 8.761719 19.039062 8.863281 C 19.207031 8.992188 19.210938 9.011719 19.222656 9.730469 L 19.234375 10.378906 L 20.496094 10.390625 C 21.898438 10.40625 21.8125 10.394531 21.949219 10.574219 C 22.042969 10.695312 22.042969 10.902344 21.949219 11.027344 C 21.8125 11.207031 21.898438 11.195312 20.496094 11.207031 L 19.234375 11.21875 L 19.230469 12.796875 L 19.222656 14.375 L 20.457031 14.375 C 21.691406 14.375 21.691406 14.375 21.792969 14.429688 C 22.0625 14.574219 22.097656 14.949219 21.859375 15.128906 C 21.722656 15.230469 21.628906 15.238281 20.394531 15.238281 L 19.222656 15.238281 L 19.222656 15.863281 C 19.222656 16.675781 19.167969 16.804688 18.808594 16.808594 C 18.449219 16.816406 18.398438 16.707031 18.382812 15.898438 L 18.371094 15.253906 L 16.808594 15.246094 L 15.242188 15.238281 L 15.234375 15.859375 C 15.226562 16.664062 15.15625 16.8125 14.796875 16.808594 C 14.433594 16.804688 14.375 16.679688 14.375 15.867188 L 14.375 15.238281 L 11.21875 15.253906 L 11.207031 15.910156 C 11.195312 16.554688 11.195312 16.574219 11.140625 16.648438 C 11.011719 16.832031 10.699219 16.875 10.542969 16.734375 C 10.390625 16.597656 10.390625 16.597656 10.390625 15.890625 L 10.390625 15.242188 L 9.355469 15.234375 C 8.355469 15.226562 8.3125 15.226562 8.21875 15.179688 C 7.90625 15.011719 7.902344 14.601562 8.21875 14.425781 C 8.300781 14.378906 8.339844 14.375 9.347656 14.375 L 10.390625 14.375 L 10.390625 12.804688 C 10.390625 11.398438 10.386719 11.234375 10.355469 11.222656 C 10.332031 11.214844 9.671875 11.207031 8.882812 11.207031 L 7.445312 11.207031 L 7.378906 11.15625 C 7.167969 10.996094 7.121094 10.765625 7.253906 10.566406 C 7.371094 10.398438 7.289062 10.40625 8.914062 10.390625 L 10.378906 10.378906 L 10.386719 9.730469 C 10.390625 9.03125 10.394531 9.019531 10.53125 8.886719 C 10.660156 8.765625 10.90625 8.757812 11.054688 8.867188 M 11.222656 11.222656 C 11.214844 11.234375 11.207031 11.945312 11.207031 12.808594 L 11.207031 14.375 L 14.375 14.375 L 14.375 11.207031 L 12.808594 11.207031 C 11.945312 11.207031 11.234375 11.214844 11.222656 11.222656 M 15.257812 11.222656 C 15.246094 11.234375 15.238281 11.945312 15.238281 12.808594 L 15.238281 14.375 L 18.382812 14.375 L 18.378906 12.796875 L 18.371094 11.21875 L 16.820312 11.214844 C 15.96875 11.210938 15.265625 11.214844 15.257812 11.222656 M 10.90625 20.859375 C 9.867188 21.210938 9.707031 22.535156 10.648438 23.035156 C 10.960938 23.199219 11.109375 23.195312 11.25 23.011719 C 11.683594 22.445312 11.722656 21.703125 11.34375 21.132812 C 11.152344 20.84375 11.085938 20.800781 10.90625 20.859375 M 19.753906 20.855469 C 19.730469 20.867188 19.695312 20.878906 19.671875 20.878906 C 19.289062 20.882812 18.742188 21.648438 18.824219 22.070312 C 18.828125 22.109375 18.84375 22.183594 18.851562 22.234375 C 18.941406 22.773438 19.699219 23.359375 19.96875 23.097656 C 20.421875 22.667969 20.53125 21.894531 20.226562 21.273438 C 20.070312 20.949219 19.875 20.777344 19.753906 20.855469 "/>
<path style=" stroke:none;fill-rule:evenodd;fill:rgb(97.254902%,53.333333%,5.490196%);fill-opacity:1;" d="M 8.695312 0.851562 C 8.601562 0.882812 8.519531 0.949219 8.472656 1.03125 C 8.441406 1.085938 8.433594 1.480469 8.429688 4.121094 L 8.421875 7.152344 L 9.167969 7.152344 L 9.167969 0.816406 L 8.96875 0.820312 C 8.859375 0.820312 8.738281 0.835938 8.695312 0.851562 M 10.019531 0.871094 C 10.011719 0.898438 10.011719 2.328125 10.011719 4.042969 L 10.019531 7.164062 L 11.324219 7.171875 C 12.683594 7.175781 12.695312 7.175781 12.695312 7.078125 C 12.695312 7.050781 12.707031 7.011719 12.71875 6.988281 C 12.730469 6.964844 12.753906 6.898438 12.769531 6.839844 C 12.785156 6.78125 12.816406 6.671875 12.839844 6.601562 C 12.863281 6.527344 12.914062 6.359375 12.957031 6.226562 C 13.167969 5.546875 13.230469 5.332031 13.246094 5.269531 C 13.257812 5.226562 13.292969 5.109375 13.328125 5.003906 C 13.363281 4.898438 13.414062 4.746094 13.441406 4.664062 C 13.464844 4.582031 13.488281 4.496094 13.488281 4.46875 L 13.488281 4.414062 L 12.300781 4.414062 C 10.652344 4.414062 10.777344 4.511719 10.777344 3.199219 C 10.777344 2.246094 10.78125 2.207031 10.964844 2.070312 L 11.046875 2.003906 L 12.441406 1.988281 C 13.207031 1.980469 13.933594 1.972656 14.050781 1.972656 L 14.269531 1.96875 L 14.324219 1.78125 C 14.355469 1.679688 14.390625 1.574219 14.398438 1.546875 C 14.410156 1.523438 14.441406 1.417969 14.472656 1.320312 C 14.5 1.222656 14.535156 1.117188 14.542969 1.09375 C 14.582031 0.992188 14.617188 0.871094 14.617188 0.84375 C 14.617188 0.824219 14.066406 0.816406 12.324219 0.816406 L 10.03125 0.816406 L 10.019531 0.871094 M 15.679688 0.851562 C 15.515625 0.910156 15.445312 1.011719 15.359375 1.320312 C 15.34375 1.378906 15.304688 1.507812 15.273438 1.609375 C 15.242188 1.707031 15.183594 1.894531 15.144531 2.027344 C 15.105469 2.160156 15.050781 2.34375 15.019531 2.4375 C 14.992188 2.527344 14.960938 2.625 14.953125 2.652344 C 14.941406 2.679688 14.921875 2.75 14.90625 2.808594 C 14.886719 2.867188 14.867188 2.933594 14.855469 2.957031 C 14.839844 2.980469 14.832031 3.015625 14.832031 3.035156 C 14.832031 3.054688 14.824219 3.089844 14.808594 3.113281 C 14.796875 3.136719 14.777344 3.203125 14.761719 3.265625 C 14.746094 3.324219 14.722656 3.390625 14.710938 3.414062 C 14.699219 3.4375 14.6875 3.476562 14.6875 3.503906 C 14.6875 3.527344 14.675781 3.554688 14.664062 3.5625 C 14.652344 3.570312 14.640625 3.609375 14.640625 3.648438 C 14.640625 3.6875 14.628906 3.722656 14.617188 3.730469 C 14.601562 3.738281 14.59375 3.773438 14.59375 3.804688 C 14.59375 3.835938 14.582031 3.867188 14.566406 3.875 C 14.554688 3.882812 14.542969 3.921875 14.542969 3.960938 C 14.542969 4 14.53125 4.03125 14.519531 4.03125 C 14.507812 4.03125 14.496094 4.058594 14.496094 4.09375 C 14.496094 4.125 14.484375 4.171875 14.472656 4.195312 C 14.460938 4.21875 14.4375 4.285156 14.421875 4.34375 C 14.40625 4.402344 14.375 4.511719 14.351562 4.585938 C 14.328125 4.65625 14.269531 4.851562 14.21875 5.015625 C 14.171875 5.179688 14.101562 5.40625 14.066406 5.519531 C 14.027344 5.632812 13.984375 5.773438 13.96875 5.832031 C 13.953125 5.890625 13.929688 5.960938 13.921875 5.988281 C 13.910156 6.015625 13.886719 6.085938 13.871094 6.144531 C 13.855469 6.203125 13.832031 6.269531 13.820312 6.292969 C 13.808594 6.316406 13.800781 6.355469 13.800781 6.382812 C 13.800781 6.40625 13.789062 6.4375 13.777344 6.445312 C 13.761719 6.453125 13.753906 6.488281 13.753906 6.527344 C 13.753906 6.566406 13.742188 6.605469 13.726562 6.613281 C 13.714844 6.621094 13.703125 6.652344 13.703125 6.683594 C 13.703125 6.714844 13.691406 6.746094 13.679688 6.757812 C 13.667969 6.765625 13.65625 6.796875 13.65625 6.828125 C 13.65625 6.859375 13.644531 6.890625 13.632812 6.898438 C 13.617188 6.90625 13.609375 6.945312 13.609375 6.984375 C 13.609375 7.023438 13.597656 7.058594 13.585938 7.066406 C 13.480469 7.132812 13.566406 7.152344 13.933594 7.152344 C 14.347656 7.152344 14.375 7.144531 14.375 7.003906 C 14.375 6.96875 14.386719 6.933594 14.398438 6.925781 C 14.414062 6.914062 14.425781 6.882812 14.425781 6.851562 C 14.425781 6.820312 14.433594 6.789062 14.449219 6.78125 C 14.460938 6.773438 14.472656 6.738281 14.472656 6.707031 C 14.472656 6.675781 14.484375 6.644531 14.496094 6.636719 C 14.507812 6.628906 14.519531 6.589844 14.519531 6.550781 C 14.519531 6.515625 14.53125 6.476562 14.542969 6.46875 C 14.558594 6.460938 14.566406 6.433594 14.566406 6.40625 C 14.566406 6.378906 14.578125 6.339844 14.589844 6.316406 C 14.601562 6.292969 14.625 6.226562 14.640625 6.167969 C 14.65625 6.109375 14.679688 6.042969 14.691406 6.019531 C 14.703125 5.996094 14.710938 5.957031 14.710938 5.929688 C 14.710938 5.902344 14.722656 5.875 14.734375 5.867188 C 14.75 5.859375 14.761719 5.832031 14.761719 5.804688 C 14.761719 5.78125 14.785156 5.675781 14.820312 5.574219 C 14.945312 5.171875 15.074219 4.757812 15.097656 4.667969 C 15.113281 4.613281 15.132812 4.550781 15.144531 4.523438 C 15.152344 4.496094 15.1875 4.394531 15.214844 4.296875 C 15.246094 4.195312 15.277344 4.09375 15.289062 4.066406 C 15.296875 4.042969 15.320312 3.972656 15.335938 3.910156 C 15.351562 3.851562 15.375 3.785156 15.386719 3.761719 C 15.398438 3.738281 15.40625 3.699219 15.40625 3.671875 C 15.40625 3.648438 15.417969 3.621094 15.433594 3.613281 C 15.445312 3.605469 15.457031 3.570312 15.457031 3.539062 C 15.457031 3.507812 15.46875 3.476562 15.480469 3.46875 C 15.492188 3.460938 15.503906 3.421875 15.503906 3.382812 C 15.503906 3.347656 15.515625 3.308594 15.527344 3.300781 C 15.542969 3.292969 15.550781 3.257812 15.550781 3.226562 C 15.550781 3.195312 15.5625 3.164062 15.574219 3.15625 C 15.589844 3.148438 15.601562 3.109375 15.601562 3.070312 C 15.601562 3.035156 15.609375 2.996094 15.625 2.988281 C 15.636719 2.980469 15.648438 2.953125 15.648438 2.925781 C 15.648438 2.902344 15.65625 2.859375 15.667969 2.835938 C 15.679688 2.816406 15.703125 2.746094 15.722656 2.6875 C 15.738281 2.628906 15.769531 2.519531 15.792969 2.449219 C 15.816406 2.375 15.875 2.179688 15.925781 2.015625 C 15.972656 1.851562 16.042969 1.625 16.078125 1.511719 C 16.117188 1.398438 16.160156 1.257812 16.175781 1.199219 C 16.191406 1.140625 16.21875 1.066406 16.230469 1.039062 C 16.246094 1.007812 16.25 0.976562 16.242188 0.972656 C 16.21875 0.945312 15.972656 0.863281 15.917969 0.863281 C 15.890625 0.863281 15.859375 0.851562 15.851562 0.839844 C 15.832031 0.808594 15.777344 0.8125 15.679688 0.851562 M 17.066406 1.234375 C 17.054688 1.25 16.976562 1.476562 16.894531 1.742188 C 16.816406 2.003906 16.742188 2.246094 16.730469 2.28125 C 16.71875 2.3125 16.6875 2.421875 16.65625 2.519531 C 16.625 2.617188 16.59375 2.722656 16.585938 2.746094 C 16.566406 2.792969 16.53125 2.910156 16.417969 3.289062 C 16.386719 3.386719 16.355469 3.488281 16.34375 3.515625 C 16.332031 3.542969 16.300781 3.644531 16.273438 3.742188 C 16.242188 3.84375 16.199219 3.984375 16.175781 4.054688 C 16.152344 4.128906 16.109375 4.269531 16.082031 4.367188 C 16.050781 4.46875 15.992188 4.660156 15.949219 4.800781 C 15.902344 4.9375 15.832031 5.164062 15.792969 5.304688 C 15.75 5.441406 15.695312 5.617188 15.671875 5.6875 C 15.648438 5.761719 15.605469 5.902344 15.578125 6 C 15.546875 6.097656 15.515625 6.203125 15.503906 6.226562 C 15.492188 6.253906 15.460938 6.355469 15.429688 6.457031 C 15.3125 6.851562 15.28125 6.949219 15.261719 6.996094 C 15.253906 7.023438 15.238281 7.074219 15.230469 7.109375 L 15.214844 7.175781 L 18.125 7.171875 L 21.03125 7.164062 L 21.074219 7.03125 C 21.097656 6.960938 21.152344 6.785156 21.191406 6.648438 C 21.234375 6.507812 21.277344 6.375 21.289062 6.347656 C 21.296875 6.320312 21.332031 6.21875 21.359375 6.121094 C 21.476562 5.738281 21.511719 5.625 21.527344 5.578125 C 21.539062 5.554688 21.558594 5.484375 21.574219 5.425781 C 21.589844 5.363281 21.613281 5.296875 21.625 5.273438 C 21.636719 5.25 21.648438 5.214844 21.648438 5.195312 C 21.648438 5.175781 21.65625 5.140625 21.667969 5.117188 C 21.679688 5.09375 21.703125 5.027344 21.722656 4.96875 C 21.738281 4.910156 21.769531 4.800781 21.792969 4.726562 C 21.816406 4.65625 21.867188 4.484375 21.910156 4.34375 C 21.953125 4.207031 22.019531 3.996094 22.054688 3.875 C 22.09375 3.757812 22.152344 3.5625 22.1875 3.445312 C 22.222656 3.324219 22.273438 3.167969 22.296875 3.097656 C 22.390625 2.8125 22.449219 2.867188 21.839844 2.683594 C 21.753906 2.65625 21.664062 2.625 21.640625 2.613281 C 21.621094 2.601562 21.578125 2.59375 21.554688 2.59375 C 21.527344 2.59375 21.5 2.582031 21.492188 2.566406 C 21.484375 2.554688 21.457031 2.542969 21.429688 2.542969 C 21.40625 2.542969 21.363281 2.535156 21.339844 2.523438 C 21.320312 2.511719 21.25 2.488281 21.191406 2.472656 C 21.132812 2.457031 21.0625 2.433594 21.035156 2.425781 C 21.007812 2.414062 20.9375 2.390625 20.878906 2.375 C 20.820312 2.359375 20.75 2.339844 20.722656 2.328125 C 20.699219 2.316406 20.628906 2.296875 20.566406 2.28125 C 20.507812 2.261719 20.402344 2.230469 20.328125 2.207031 C 20.253906 2.183594 20.066406 2.125 19.90625 2.074219 C 19.75 2.027344 19.519531 1.953125 19.398438 1.917969 C 19.050781 1.808594 18.722656 1.707031 18.539062 1.652344 C 18.449219 1.625 18.351562 1.59375 18.324219 1.585938 C 18.296875 1.574219 18.195312 1.542969 18.097656 1.511719 C 17.996094 1.480469 17.855469 1.4375 17.785156 1.414062 C 17.125 1.207031 17.09375 1.199219 17.066406 1.234375 M 17.9375 2.691406 C 17.953125 2.703125 17.980469 2.710938 18.003906 2.710938 C 18.027344 2.710938 18.066406 2.722656 18.089844 2.734375 C 18.113281 2.746094 18.179688 2.769531 18.238281 2.785156 C 18.300781 2.800781 18.40625 2.832031 18.480469 2.855469 C 18.550781 2.878906 18.6875 2.921875 18.78125 2.949219 C 18.953125 3 19.125 3.054688 19.800781 3.265625 C 20.019531 3.332031 20.226562 3.398438 20.269531 3.40625 C 20.308594 3.417969 20.421875 3.453125 20.519531 3.484375 C 20.617188 3.519531 20.75 3.558594 20.808594 3.578125 C 21.121094 3.671875 21.273438 3.925781 21.167969 4.179688 C 21.15625 4.210938 21.109375 4.359375 21.0625 4.511719 C 21.015625 4.664062 20.929688 4.949219 20.867188 5.148438 C 20.804688 5.347656 20.75 5.53125 20.742188 5.554688 C 20.644531 5.96875 20.445312 6.019531 19.769531 5.804688 C 19.648438 5.765625 19.441406 5.703125 19.308594 5.660156 C 19.175781 5.621094 19.046875 5.578125 19.019531 5.566406 C 18.992188 5.558594 18.921875 5.535156 18.863281 5.519531 C 18.804688 5.503906 18.734375 5.480469 18.707031 5.472656 C 18.679688 5.460938 18.578125 5.429688 18.480469 5.398438 C 18.382812 5.371094 18.242188 5.328125 18.167969 5.304688 C 18.09375 5.28125 17.929688 5.230469 17.796875 5.1875 C 17.664062 5.148438 17.441406 5.078125 17.304688 5.035156 C 17.019531 4.949219 16.90625 4.859375 16.851562 4.6875 C 16.816406 4.570312 16.84375 4.460938 17.0625 3.792969 C 17.085938 3.71875 17.148438 3.523438 17.195312 3.359375 C 17.355469 2.820312 17.421875 2.703125 17.609375 2.660156 C 17.691406 2.640625 17.90625 2.660156 17.9375 2.691406 M 11.625 2.839844 C 11.621094 2.855469 11.617188 3.03125 11.621094 3.230469 L 11.628906 3.589844 L 12.695312 3.59375 L 13.765625 3.601562 L 13.789062 3.535156 C 13.804688 3.496094 13.832031 3.417969 13.847656 3.359375 C 13.863281 3.300781 13.886719 3.230469 13.894531 3.203125 C 13.90625 3.175781 13.925781 3.113281 13.941406 3.058594 C 13.953125 3.007812 13.972656 2.9375 13.980469 2.90625 C 13.992188 2.871094 13.984375 2.84375 13.964844 2.828125 C 13.90625 2.792969 11.640625 2.800781 11.625 2.839844 M 17.980469 3.640625 C 17.941406 3.742188 17.785156 4.261719 17.785156 4.292969 C 17.785156 4.304688 17.847656 4.335938 17.921875 4.355469 C 17.996094 4.378906 18.152344 4.425781 18.265625 4.464844 C 18.375 4.5 18.550781 4.554688 18.648438 4.582031 C 18.746094 4.613281 18.886719 4.65625 18.960938 4.679688 C 19.03125 4.703125 19.207031 4.757812 19.34375 4.800781 C 19.484375 4.84375 19.6875 4.910156 19.800781 4.945312 C 20.039062 5.023438 20.035156 5.027344 20.109375 4.777344 C 20.140625 4.675781 20.183594 4.53125 20.210938 4.453125 C 20.234375 4.375 20.257812 4.304688 20.257812 4.292969 C 20.257812 4.285156 20.144531 4.242188 20.011719 4.199219 C 19.875 4.15625 19.703125 4.101562 19.632812 4.078125 C 19.558594 4.054688 19.261719 3.964844 18.972656 3.875 C 18.679688 3.789062 18.394531 3.699219 18.335938 3.679688 C 18.277344 3.660156 18.195312 3.632812 18.15625 3.625 C 18.117188 3.613281 18.066406 3.597656 18.046875 3.589844 C 18.019531 3.578125 18 3.59375 17.980469 3.640625 "/>
<path style=" stroke:none;fill-rule:evenodd;fill:rgb(1.568627%,1.568627%,1.568627%);fill-opacity:1;" d="M 8.316406 0.0429688 C 8.25 0.0625 8.179688 0.101562 8.15625 0.125 C 8.136719 0.148438 8.105469 0.167969 8.089844 0.167969 C 8.074219 0.167969 7.996094 0.234375 7.914062 0.320312 C 7.777344 0.457031 7.726562 0.527344 7.679688 0.625 C 7.671875 0.644531 7.652344 0.683594 7.636719 0.714844 C 7.621094 0.742188 7.609375 0.789062 7.609375 0.8125 C 7.609375 0.839844 7.597656 0.867188 7.585938 0.875 C 7.566406 0.886719 7.558594 1.960938 7.558594 4.019531 L 7.558594 7.152344 L 6.574219 7.152344 C 5.609375 7.152344 5.59375 7.152344 5.59375 7.105469 C 5.59375 7.078125 5.582031 7.054688 5.566406 7.054688 C 5.554688 7.054688 5.542969 6.988281 5.542969 6.902344 C 5.542969 6.820312 5.535156 6.742188 5.527344 6.734375 C 5.515625 6.722656 5.496094 6.589844 5.476562 6.4375 C 5.460938 6.28125 5.4375 6.085938 5.421875 6 C 5.410156 5.914062 5.390625 5.785156 5.382812 5.710938 C 5.378906 5.640625 5.363281 5.570312 5.351562 5.558594 C 5.335938 5.542969 5.328125 5.472656 5.328125 5.398438 C 5.328125 5.320312 5.316406 5.253906 5.304688 5.242188 C 5.289062 5.234375 5.28125 5.164062 5.28125 5.085938 C 5.28125 5.007812 5.269531 4.945312 5.257812 4.945312 C 5.242188 4.945312 5.230469 4.878906 5.230469 4.800781 C 5.230469 4.722656 5.222656 4.652344 5.207031 4.644531 C 5.195312 4.636719 5.183594 4.566406 5.183594 4.488281 C 5.183594 4.40625 5.171875 4.34375 5.160156 4.34375 C 5.148438 4.34375 5.136719 4.28125 5.136719 4.203125 C 5.136719 4.121094 5.125 4.050781 5.113281 4.042969 C 5.097656 4.035156 5.089844 3.964844 5.089844 3.886719 C 5.089844 3.808594 5.078125 3.738281 5.0625 3.730469 C 5.050781 3.722656 5.039062 3.660156 5.039062 3.585938 C 5.039062 3.515625 5.027344 3.457031 5.015625 3.457031 C 5.003906 3.457031 4.992188 3.390625 4.992188 3.3125 C 4.992188 3.230469 4.980469 3.167969 4.96875 3.167969 C 4.953125 3.167969 4.945312 3.136719 4.945312 3.097656 C 4.945312 3.054688 4.933594 3.023438 4.921875 3.023438 C 4.90625 3.023438 4.894531 3.003906 4.894531 2.976562 C 4.894531 2.925781 4.800781 2.734375 4.773438 2.734375 C 4.761719 2.734375 4.753906 2.71875 4.753906 2.691406 C 4.753906 2.667969 4.730469 2.636719 4.703125 2.617188 C 4.675781 2.597656 4.65625 2.574219 4.65625 2.5625 C 4.65625 2.539062 4.449219 2.328125 4.429688 2.328125 C 4.421875 2.328125 4.382812 2.296875 4.339844 2.257812 C 4.296875 2.214844 4.25 2.183594 4.234375 2.183594 C 4.214844 2.183594 4.199219 2.171875 4.199219 2.160156 C 4.199219 2.148438 4.179688 2.136719 4.152344 2.136719 C 4.125 2.136719 4.105469 2.125 4.105469 2.113281 C 4.105469 2.097656 4.082031 2.089844 4.054688 2.089844 C 4.03125 2.089844 4.007812 2.078125 4.007812 2.0625 C 4.007812 2.050781 3.976562 2.039062 3.9375 2.039062 C 3.894531 2.039062 3.863281 2.027344 3.863281 2.015625 C 3.863281 2.003906 3.808594 1.992188 3.742188 1.992188 C 3.679688 1.992188 3.625 1.980469 3.625 1.96875 C 3.625 1.953125 3.046875 1.945312 1.945312 1.945312 C 0.839844 1.945312 0.265625 1.953125 0.265625 1.96875 C 0.265625 1.980469 0.242188 1.992188 0.214844 1.992188 C 0.191406 1.992188 0.167969 2.003906 0.167969 2.015625 C 0.167969 2.027344 0.148438 2.039062 0.121094 2.039062 C -0.015625 2.039062 -0.0546875 2.589844 0.078125 2.71875 C 0.113281 2.753906 0.160156 2.785156 0.179688 2.785156 C 0.199219 2.785156 0.214844 2.792969 0.214844 2.808594 C 0.214844 2.824219 0.78125 2.832031 1.859375 2.832031 C 2.941406 2.832031 3.503906 2.839844 3.503906 2.855469 C 3.503906 2.871094 3.523438 2.878906 3.546875 2.878906 C 3.601562 2.878906 3.71875 2.933594 3.71875 2.957031 C 3.71875 2.96875 3.738281 2.976562 3.757812 2.976562 C 3.804688 2.976562 4.007812 3.183594 4.007812 3.230469 C 4.007812 3.25 4.019531 3.265625 4.03125 3.265625 C 4.046875 3.265625 4.054688 3.285156 4.054688 3.3125 C 4.054688 3.339844 4.066406 3.359375 4.078125 3.359375 C 4.09375 3.359375 4.105469 3.410156 4.105469 3.46875 C 4.105469 3.527344 4.113281 3.574219 4.128906 3.574219 C 4.140625 3.574219 4.152344 3.640625 4.152344 3.71875 C 4.152344 3.800781 4.164062 3.863281 4.175781 3.863281 C 4.1875 3.863281 4.199219 3.925781 4.199219 4.007812 C 4.199219 4.085938 4.210938 4.15625 4.222656 4.164062 C 4.238281 4.171875 4.246094 4.242188 4.246094 4.320312 C 4.246094 4.402344 4.257812 4.464844 4.273438 4.464844 C 4.285156 4.464844 4.296875 4.527344 4.296875 4.605469 C 4.296875 4.683594 4.308594 4.753906 4.320312 4.765625 C 4.332031 4.773438 4.34375 4.847656 4.34375 4.933594 C 4.34375 5.019531 4.355469 5.089844 4.367188 5.089844 C 4.382812 5.089844 4.390625 5.152344 4.390625 5.230469 C 4.390625 5.3125 4.402344 5.375 4.414062 5.375 C 4.429688 5.375 4.441406 5.445312 4.441406 5.53125 C 4.441406 5.621094 4.449219 5.6875 4.464844 5.6875 C 4.476562 5.6875 4.488281 5.738281 4.488281 5.800781 C 4.488281 5.910156 4.507812 6.058594 4.5625 6.40625 C 4.578125 6.492188 4.59375 6.632812 4.601562 6.714844 C 4.605469 6.796875 4.621094 6.863281 4.632812 6.863281 C 4.644531 6.863281 4.65625 6.929688 4.664062 7.015625 C 4.699219 7.402344 4.710938 7.464844 4.730469 7.464844 C 4.742188 7.464844 4.753906 7.535156 4.753906 7.617188 C 4.753906 7.703125 4.761719 7.78125 4.777344 7.789062 C 4.789062 7.796875 4.800781 7.867188 4.800781 7.945312 C 4.800781 8.023438 4.8125 8.089844 4.824219 8.089844 C 4.835938 8.089844 4.847656 8.152344 4.847656 8.230469 C 4.847656 8.308594 4.859375 8.378906 4.871094 8.386719 C 4.886719 8.394531 4.894531 8.46875 4.894531 8.546875 C 4.894531 8.625 4.90625 8.6875 4.921875 8.6875 C 4.933594 8.6875 4.945312 8.75 4.945312 8.832031 C 4.945312 8.910156 4.953125 8.980469 4.96875 8.988281 C 4.980469 8.996094 4.992188 9.066406 4.992188 9.144531 C 4.992188 9.222656 5.003906 9.292969 5.015625 9.300781 C 5.027344 9.308594 5.039062 9.375 5.039062 9.445312 C 5.039062 9.515625 5.050781 9.574219 5.0625 9.574219 C 5.078125 9.574219 5.089844 9.644531 5.089844 9.730469 C 5.089844 9.816406 5.097656 9.890625 5.113281 9.898438 C 5.125 9.90625 5.136719 9.980469 5.136719 10.058594 C 5.136719 10.136719 5.148438 10.199219 5.160156 10.199219 C 5.171875 10.199219 5.183594 10.261719 5.183594 10.34375 C 5.183594 10.421875 5.195312 10.492188 5.207031 10.5 C 5.222656 10.507812 5.230469 10.578125 5.230469 10.65625 C 5.230469 10.738281 5.242188 10.800781 5.257812 10.800781 C 5.269531 10.800781 5.28125 10.863281 5.28125 10.941406 C 5.28125 11.019531 5.289062 11.09375 5.304688 11.101562 C 5.316406 11.109375 5.328125 11.179688 5.328125 11.257812 C 5.328125 11.335938 5.339844 11.398438 5.351562 11.398438 C 5.367188 11.398438 5.375 11.464844 5.375 11.542969 C 5.375 11.625 5.386719 11.6875 5.398438 11.6875 C 5.414062 11.6875 5.425781 11.753906 5.425781 11.84375 C 5.425781 11.925781 5.433594 12.003906 5.449219 12.011719 C 5.460938 12.019531 5.472656 12.078125 5.472656 12.144531 C 5.472656 12.207031 5.484375 12.3125 5.496094 12.375 C 5.519531 12.492188 5.558594 12.78125 5.582031 13.03125 C 5.589844 13.105469 5.605469 13.175781 5.617188 13.1875 C 5.628906 13.199219 5.640625 13.273438 5.640625 13.347656 C 5.640625 13.421875 5.652344 13.492188 5.664062 13.5 C 5.675781 13.507812 5.6875 13.578125 5.6875 13.65625 C 5.6875 13.738281 5.699219 13.800781 5.710938 13.800781 C 5.726562 13.800781 5.734375 13.863281 5.734375 13.941406 C 5.734375 14.019531 5.746094 14.09375 5.761719 14.101562 C 5.773438 14.109375 5.785156 14.179688 5.785156 14.257812 C 5.785156 14.335938 5.792969 14.398438 5.804688 14.398438 C 5.816406 14.398438 5.835938 14.46875 5.84375 14.554688 C 5.851562 14.640625 5.863281 14.78125 5.871094 14.867188 C 5.878906 14.953125 5.894531 15.023438 5.90625 15.023438 C 5.917969 15.023438 5.929688 15.089844 5.929688 15.167969 C 5.929688 15.246094 5.9375 15.3125 5.953125 15.3125 C 5.964844 15.3125 5.976562 15.378906 5.976562 15.46875 C 5.976562 15.554688 5.988281 15.625 6 15.625 C 6.011719 15.625 6.023438 15.6875 6.023438 15.769531 C 6.023438 15.847656 6.035156 15.910156 6.046875 15.910156 C 6.0625 15.910156 6.070312 15.980469 6.070312 16.066406 C 6.070312 16.15625 6.082031 16.222656 6.097656 16.222656 C 6.109375 16.222656 6.121094 16.289062 6.121094 16.367188 C 6.121094 16.449219 6.128906 16.511719 6.144531 16.511719 C 6.15625 16.511719 6.167969 16.578125 6.167969 16.667969 C 6.167969 16.75 6.179688 16.828125 6.191406 16.835938 C 6.207031 16.84375 6.214844 16.914062 6.214844 16.992188 C 6.214844 17.074219 6.226562 17.136719 6.238281 17.136719 C 6.253906 17.136719 6.265625 17.199219 6.265625 17.28125 C 6.265625 17.359375 6.273438 17.425781 6.289062 17.425781 C 6.300781 17.425781 6.3125 17.492188 6.3125 17.578125 C 6.3125 17.667969 6.324219 17.734375 6.335938 17.734375 C 6.347656 17.734375 6.359375 17.800781 6.359375 17.878906 C 6.359375 17.960938 6.371094 18.023438 6.382812 18.023438 C 6.398438 18.023438 6.40625 18.09375 6.40625 18.179688 C 6.40625 18.269531 6.417969 18.335938 6.433594 18.335938 C 6.445312 18.335938 6.457031 18.390625 6.457031 18.457031 C 6.457031 18.523438 6.46875 18.574219 6.480469 18.574219 C 6.492188 18.574219 6.503906 18.625 6.503906 18.683594 C 6.503906 18.777344 6.539062 18.929688 6.597656 19.066406 C 6.667969 19.230469 6.785156 19.457031 6.820312 19.492188 C 6.84375 19.511719 6.863281 19.542969 6.863281 19.5625 C 6.863281 19.582031 6.886719 19.613281 6.910156 19.632812 C 6.9375 19.652344 6.960938 19.679688 6.960938 19.695312 C 6.960938 19.734375 7.132812 19.921875 7.382812 20.160156 C 7.523438 20.292969 7.761719 20.457031 7.847656 20.484375 C 7.882812 20.492188 7.914062 20.507812 7.921875 20.515625 C 7.945312 20.550781 8.042969 20.59375 8.085938 20.59375 C 8.113281 20.59375 8.136719 20.601562 8.136719 20.617188 C 8.136719 20.628906 8.15625 20.640625 8.183594 20.640625 C 8.210938 20.640625 8.230469 20.652344 8.230469 20.664062 C 8.230469 20.675781 8.265625 20.6875 8.304688 20.6875 C 8.34375 20.6875 8.375 20.699219 8.375 20.710938 C 8.375 20.726562 8.414062 20.734375 8.457031 20.734375 C 8.503906 20.734375 8.546875 20.746094 8.554688 20.761719 C 8.5625 20.773438 8.617188 20.785156 8.675781 20.785156 C 8.734375 20.785156 8.785156 20.792969 8.785156 20.808594 C 8.785156 20.824219 8.921875 20.832031 9.144531 20.832031 C 9.367188 20.832031 9.503906 20.839844 9.503906 20.855469 C 9.503906 20.871094 9.492188 20.878906 9.480469 20.878906 C 9.46875 20.878906 9.457031 20.902344 9.457031 20.929688 C 9.457031 20.953125 9.445312 20.976562 9.433594 20.976562 C 9.417969 20.976562 9.40625 20.996094 9.40625 21.023438 C 9.40625 21.050781 9.398438 21.070312 9.382812 21.070312 C 9.371094 21.070312 9.359375 21.09375 9.359375 21.121094 C 9.359375 21.144531 9.347656 21.167969 9.335938 21.167969 C 9.324219 21.167969 9.3125 21.191406 9.3125 21.214844 C 9.3125 21.242188 9.300781 21.265625 9.289062 21.265625 C 9.273438 21.265625 9.265625 21.296875 9.265625 21.335938 C 9.265625 21.375 9.253906 21.40625 9.238281 21.40625 C 9.226562 21.40625 9.214844 21.449219 9.214844 21.503906 C 9.214844 21.554688 9.207031 21.605469 9.191406 21.613281 C 9.175781 21.621094 9.167969 21.777344 9.167969 21.996094 C 9.167969 22.214844 9.175781 22.371094 9.191406 22.378906 C 9.207031 22.386719 9.214844 22.4375 9.214844 22.488281 C 9.214844 22.539062 9.226562 22.585938 9.238281 22.597656 C 9.253906 22.605469 9.265625 22.636719 9.265625 22.667969 C 9.265625 22.699219 9.273438 22.730469 9.289062 22.738281 C 9.300781 22.75 9.3125 22.777344 9.3125 22.800781 C 9.3125 22.828125 9.324219 22.847656 9.335938 22.847656 C 9.347656 22.847656 9.359375 22.871094 9.359375 22.894531 C 9.359375 22.921875 9.371094 22.945312 9.382812 22.945312 C 9.398438 22.945312 9.40625 22.964844 9.40625 22.992188 C 9.40625 23.019531 9.417969 23.039062 9.433594 23.039062 C 9.445312 23.039062 9.457031 23.058594 9.457031 23.078125 C 9.457031 23.097656 9.484375 23.144531 9.515625 23.179688 C 9.550781 23.214844 9.574219 23.253906 9.574219 23.269531 C 9.574219 23.304688 9.933594 23.640625 9.96875 23.640625 C 9.984375 23.640625 10.011719 23.660156 10.03125 23.6875 C 10.050781 23.714844 10.085938 23.734375 10.109375 23.734375 C 10.132812 23.734375 10.152344 23.746094 10.152344 23.761719 C 10.152344 23.773438 10.171875 23.785156 10.199219 23.785156 C 10.226562 23.785156 10.246094 23.792969 10.246094 23.808594 C 10.246094 23.820312 10.269531 23.832031 10.296875 23.832031 C 10.324219 23.832031 10.34375 23.84375 10.34375 23.855469 C 10.34375 23.871094 10.367188 23.878906 10.390625 23.878906 C 10.417969 23.878906 10.441406 23.890625 10.441406 23.902344 C 10.441406 23.917969 10.464844 23.929688 10.496094 23.929688 C 10.527344 23.929688 10.5625 23.941406 10.582031 23.957031 C 10.601562 23.980469 10.761719 23.988281 11.214844 23.988281 C 11.675781 23.988281 11.820312 23.980469 11.824219 23.957031 C 11.832031 23.941406 11.867188 23.929688 11.90625 23.929688 C 11.945312 23.929688 11.976562 23.917969 11.976562 23.902344 C 11.976562 23.890625 11.996094 23.878906 12.023438 23.878906 C 12.050781 23.878906 12.070312 23.871094 12.070312 23.855469 C 12.070312 23.84375 12.09375 23.832031 12.121094 23.832031 C 12.144531 23.832031 12.167969 23.820312 12.167969 23.808594 C 12.167969 23.792969 12.191406 23.785156 12.214844 23.785156 C 12.242188 23.785156 12.265625 23.773438 12.265625 23.761719 C 12.265625 23.746094 12.277344 23.734375 12.296875 23.734375 C 12.3125 23.734375 12.363281 23.703125 12.402344 23.664062 C 12.445312 23.625 12.484375 23.59375 12.492188 23.59375 C 12.527344 23.59375 12.816406 23.304688 12.816406 23.269531 C 12.816406 23.253906 12.835938 23.226562 12.863281 23.207031 C 12.890625 23.1875 12.910156 23.15625 12.910156 23.136719 C 12.910156 23.117188 12.933594 23.082031 12.960938 23.0625 C 12.988281 23.046875 13.007812 23.011719 13.007812 22.988281 C 13.007812 22.964844 13.019531 22.945312 13.03125 22.945312 C 13.046875 22.945312 13.054688 22.921875 13.054688 22.894531 C 13.054688 22.871094 13.066406 22.847656 13.078125 22.847656 C 13.09375 22.847656 13.105469 22.816406 13.105469 22.777344 C 13.105469 22.738281 13.113281 22.703125 13.128906 22.703125 C 13.140625 22.703125 13.152344 22.671875 13.152344 22.632812 C 13.152344 22.59375 13.164062 22.558594 13.175781 22.558594 C 13.1875 22.558594 13.199219 22.511719 13.199219 22.453125 C 13.199219 22.394531 13.210938 22.339844 13.222656 22.332031 C 13.238281 22.324219 13.246094 22.179688 13.246094 21.984375 C 13.246094 21.777344 13.238281 21.648438 13.222656 21.648438 C 13.210938 21.648438 13.199219 21.605469 13.199219 21.550781 C 13.199219 21.5 13.1875 21.457031 13.175781 21.457031 C 13.164062 21.457031 13.152344 21.421875 13.152344 21.382812 C 13.152344 21.34375 13.140625 21.3125 13.128906 21.3125 C 13.113281 21.3125 13.105469 21.28125 13.105469 21.238281 C 13.105469 21.199219 13.09375 21.167969 13.078125 21.167969 C 13.066406 21.167969 13.054688 21.144531 13.054688 21.121094 C 13.054688 21.09375 13.046875 21.070312 13.03125 21.070312 C 13.019531 21.070312 13.007812 21.054688 13.007812 21.035156 C 13.007812 21.015625 12.988281 20.976562 12.960938 20.945312 C 12.847656 20.828125 12.722656 20.832031 15.613281 20.832031 C 17.394531 20.832031 18.3125 20.839844 18.3125 20.855469 C 18.3125 20.871094 18.300781 20.878906 18.289062 20.878906 C 18.273438 20.878906 18.265625 20.894531 18.265625 20.914062 C 18.265625 20.9375 18.253906 20.953125 18.238281 20.953125 C 18.226562 20.953125 18.214844 20.96875 18.214844 20.988281 C 18.214844 21.007812 18.207031 21.023438 18.191406 21.023438 C 18.179688 21.023438 18.167969 21.046875 18.167969 21.070312 C 18.167969 21.097656 18.15625 21.121094 18.144531 21.121094 C 18.128906 21.121094 18.121094 21.152344 18.121094 21.191406 C 18.121094 21.230469 18.109375 21.265625 18.097656 21.265625 C 18.082031 21.265625 18.070312 21.285156 18.070312 21.3125 C 18.070312 21.335938 18.0625 21.363281 18.046875 21.371094 C 18.035156 21.378906 18.023438 21.425781 18.023438 21.46875 C 18.023438 21.515625 18.011719 21.550781 18 21.550781 C 17.984375 21.550781 17.976562 21.71875 17.976562 22.007812 C 17.976562 22.296875 17.984375 22.464844 18 22.464844 C 18.011719 22.464844 18.023438 22.5 18.023438 22.546875 C 18.023438 22.59375 18.035156 22.636719 18.046875 22.644531 C 18.0625 22.652344 18.070312 22.679688 18.070312 22.707031 C 18.070312 22.730469 18.082031 22.753906 18.097656 22.753906 C 18.109375 22.753906 18.121094 22.777344 18.121094 22.8125 C 18.121094 22.84375 18.128906 22.875 18.144531 22.882812 C 18.15625 22.890625 18.167969 22.917969 18.167969 22.941406 C 18.167969 22.960938 18.191406 22.996094 18.214844 23.015625 C 18.242188 23.035156 18.265625 23.070312 18.265625 23.09375 C 18.265625 23.117188 18.273438 23.136719 18.289062 23.136719 C 18.300781 23.136719 18.3125 23.152344 18.3125 23.171875 C 18.3125 23.191406 18.324219 23.207031 18.335938 23.207031 C 18.347656 23.207031 18.359375 23.21875 18.359375 23.234375 C 18.359375 23.265625 18.734375 23.640625 18.765625 23.640625 C 18.78125 23.640625 18.792969 23.652344 18.792969 23.664062 C 18.792969 23.675781 18.808594 23.6875 18.828125 23.6875 C 18.847656 23.6875 18.863281 23.699219 18.863281 23.710938 C 18.863281 23.726562 18.882812 23.734375 18.90625 23.734375 C 18.929688 23.734375 18.964844 23.757812 18.984375 23.785156 C 19.003906 23.808594 19.039062 23.832031 19.058594 23.832031 C 19.082031 23.832031 19.109375 23.84375 19.117188 23.855469 C 19.125 23.871094 19.15625 23.878906 19.1875 23.878906 C 19.222656 23.878906 19.246094 23.890625 19.246094 23.902344 C 19.246094 23.917969 19.265625 23.929688 19.292969 23.929688 C 19.316406 23.929688 19.347656 23.941406 19.363281 23.957031 C 19.386719 23.980469 19.550781 23.988281 20.007812 23.988281 C 20.480469 23.988281 20.625 23.980469 20.632812 23.957031 C 20.640625 23.941406 20.675781 23.929688 20.714844 23.929688 C 20.753906 23.929688 20.785156 23.917969 20.785156 23.902344 C 20.785156 23.890625 20.804688 23.878906 20.832031 23.878906 C 20.859375 23.878906 20.878906 23.871094 20.878906 23.855469 C 20.878906 23.84375 20.902344 23.832031 20.929688 23.832031 C 20.953125 23.832031 20.976562 23.820312 20.976562 23.808594 C 20.976562 23.792969 20.996094 23.785156 21.019531 23.785156 C 21.042969 23.785156 21.078125 23.761719 21.097656 23.734375 C 21.113281 23.710938 21.144531 23.6875 21.160156 23.6875 C 21.175781 23.6875 21.226562 23.660156 21.265625 23.621094 C 21.433594 23.472656 21.574219 23.335938 21.574219 23.320312 C 21.574219 23.3125 21.609375 23.269531 21.648438 23.226562 C 21.6875 23.1875 21.71875 23.136719 21.71875 23.121094 C 21.71875 23.101562 21.730469 23.089844 21.742188 23.089844 C 21.757812 23.089844 21.769531 23.066406 21.769531 23.039062 C 21.769531 23.011719 21.777344 22.992188 21.792969 22.992188 C 21.804688 22.992188 21.816406 22.96875 21.816406 22.945312 C 21.816406 22.917969 21.828125 22.894531 21.839844 22.894531 C 21.851562 22.894531 21.863281 22.875 21.863281 22.847656 C 21.863281 22.820312 21.875 22.800781 21.886719 22.800781 C 21.902344 22.800781 21.910156 22.773438 21.910156 22.742188 C 21.910156 22.710938 21.921875 22.675781 21.9375 22.667969 C 21.949219 22.660156 21.960938 22.621094 21.960938 22.582031 C 21.960938 22.542969 21.972656 22.511719 21.984375 22.511719 C 21.996094 22.511719 22.007812 22.457031 22.007812 22.394531 C 22.007812 22.328125 22.019531 22.269531 22.03125 22.261719 C 22.046875 22.25 22.054688 22.136719 22.054688 21.996094 C 22.054688 21.84375 22.046875 21.742188 22.03125 21.742188 C 22.019531 21.742188 22.007812 21.691406 22.007812 21.625 C 22.007812 21.558594 21.996094 21.503906 21.984375 21.503906 C 21.972656 21.503906 21.960938 21.460938 21.960938 21.40625 C 21.960938 21.355469 21.949219 21.3125 21.9375 21.3125 C 21.921875 21.3125 21.910156 21.289062 21.910156 21.265625 C 21.910156 21.238281 21.902344 21.214844 21.886719 21.214844 C 21.875 21.214844 21.863281 21.203125 21.863281 21.183594 C 21.863281 21.140625 21.808594 21.023438 21.785156 21.023438 C 21.777344 21.023438 21.769531 21.003906 21.769531 20.976562 C 21.769531 20.949219 21.757812 20.929688 21.746094 20.929688 C 21.734375 20.929688 21.71875 20.90625 21.714844 20.878906 C 21.699219 20.832031 21.710938 20.832031 22.742188 20.832031 C 23.421875 20.832031 23.785156 20.824219 23.785156 20.808594 C 23.785156 20.792969 23.800781 20.785156 23.820312 20.785156 C 23.839844 20.785156 23.886719 20.753906 23.921875 20.71875 C 24.054688 20.589844 24.015625 20.039062 23.878906 20.039062 C 23.851562 20.039062 23.832031 20.027344 23.832031 20.015625 C 23.832031 20.003906 23.808594 19.992188 23.785156 19.992188 C 23.757812 19.992188 23.734375 19.980469 23.734375 19.96875 C 23.734375 19.953125 21.253906 19.945312 16.332031 19.945312 C 11.410156 19.945312 8.929688 19.9375 8.929688 19.921875 C 8.929688 19.90625 8.886719 19.894531 8.832031 19.894531 C 8.777344 19.894531 8.734375 19.886719 8.734375 19.871094 C 8.734375 19.859375 8.703125 19.847656 8.664062 19.847656 C 8.625 19.847656 8.59375 19.835938 8.59375 19.824219 C 8.59375 19.8125 8.570312 19.800781 8.542969 19.800781 C 8.5 19.800781 8.410156 19.761719 8.375 19.726562 C 8.371094 19.722656 8.339844 19.703125 8.308594 19.6875 C 8.105469 19.574219 8.121094 19.585938 7.871094 19.339844 C 7.753906 19.226562 7.65625 19.117188 7.65625 19.097656 C 7.65625 19.082031 7.632812 19.050781 7.609375 19.03125 C 7.582031 19.011719 7.558594 18.976562 7.558594 18.953125 C 7.558594 18.929688 7.550781 18.910156 7.535156 18.910156 C 7.523438 18.910156 7.511719 18.894531 7.511719 18.871094 C 7.511719 18.847656 7.496094 18.796875 7.476562 18.757812 C 7.457031 18.722656 7.441406 18.671875 7.441406 18.648438 C 7.441406 18.621094 7.429688 18.597656 7.414062 18.589844 C 7.402344 18.578125 7.390625 18.546875 7.390625 18.515625 L 7.390625 18.457031 L 14.65625 18.449219 C 21.546875 18.4375 22.132812 18.433594 22.1875 18.382812 C 22.199219 18.371094 22.238281 18.359375 22.277344 18.359375 C 22.34375 18.359375 22.363281 18.351562 22.480469 18.292969 C 22.511719 18.277344 22.550781 18.265625 22.570312 18.265625 C 22.589844 18.265625 22.609375 18.253906 22.609375 18.238281 C 22.609375 18.226562 22.628906 18.214844 22.65625 18.214844 C 22.683594 18.214844 22.703125 18.207031 22.703125 18.191406 C 22.703125 18.179688 22.726562 18.167969 22.753906 18.167969 C 22.777344 18.167969 22.800781 18.15625 22.800781 18.144531 C 22.800781 18.128906 22.820312 18.121094 22.84375 18.121094 C 22.867188 18.121094 22.902344 18.097656 22.921875 18.070312 C 22.9375 18.046875 22.96875 18.023438 22.988281 18.023438 C 23.007812 18.023438 23.039062 18.003906 23.0625 17.980469 C 23.082031 17.957031 23.136719 17.910156 23.183594 17.878906 C 23.3125 17.789062 23.496094 17.589844 23.496094 17.535156 C 23.496094 17.515625 23.519531 17.492188 23.542969 17.484375 C 23.570312 17.476562 23.59375 17.453125 23.59375 17.433594 C 23.59375 17.414062 23.601562 17.398438 23.617188 17.398438 C 23.628906 17.398438 23.640625 17.382812 23.640625 17.363281 C 23.640625 17.34375 23.652344 17.328125 23.664062 17.328125 C 23.675781 17.328125 23.6875 17.304688 23.6875 17.28125 C 23.6875 17.253906 23.695312 17.230469 23.707031 17.230469 C 23.71875 17.230469 23.753906 17.179688 23.78125 17.117188 C 23.8125 17.054688 23.847656 16.984375 23.859375 16.960938 C 23.871094 16.9375 23.878906 16.902344 23.878906 16.882812 C 23.878906 16.863281 23.890625 16.847656 23.902344 16.847656 C 23.917969 16.847656 23.929688 16.816406 23.929688 16.78125 C 23.929688 16.742188 23.941406 16.699219 23.957031 16.683594 C 23.980469 16.660156 23.988281 15.71875 23.988281 12.136719 L 23.988281 7.617188 L 23.933594 7.5625 C 23.90625 7.527344 23.878906 7.492188 23.878906 7.480469 C 23.878906 7.453125 23.78125 7.359375 23.707031 7.320312 C 23.667969 7.304688 23.640625 7.277344 23.640625 7.269531 C 23.640625 7.257812 23.617188 7.246094 23.59375 7.246094 C 23.566406 7.246094 23.542969 7.238281 23.542969 7.222656 C 23.542969 7.210938 23.511719 7.199219 23.472656 7.199219 C 23.433594 7.199219 23.398438 7.1875 23.398438 7.175781 C 23.398438 7.160156 23.144531 7.152344 22.679688 7.152344 C 21.976562 7.152344 21.960938 7.152344 21.960938 7.105469 C 21.960938 7.078125 21.972656 7.054688 21.984375 7.054688 C 21.996094 7.054688 22.007812 7.023438 22.007812 6.984375 C 22.007812 6.945312 22.019531 6.910156 22.03125 6.910156 C 22.046875 6.910156 22.054688 6.878906 22.054688 6.839844 C 22.054688 6.800781 22.066406 6.769531 22.078125 6.769531 C 22.09375 6.769531 22.105469 6.730469 22.105469 6.683594 C 22.105469 6.640625 22.113281 6.597656 22.128906 6.589844 C 22.140625 6.578125 22.152344 6.546875 22.152344 6.515625 C 22.152344 6.484375 22.164062 6.453125 22.175781 6.445312 C 22.1875 6.4375 22.199219 6.402344 22.199219 6.371094 C 22.199219 6.339844 22.210938 6.308594 22.222656 6.300781 C 22.238281 6.292969 22.246094 6.257812 22.246094 6.226562 C 22.246094 6.195312 22.257812 6.164062 22.273438 6.15625 C 22.285156 6.148438 22.296875 6.109375 22.296875 6.070312 C 22.296875 6.035156 22.308594 5.996094 22.320312 5.988281 C 22.332031 5.980469 22.34375 5.941406 22.34375 5.902344 C 22.34375 5.863281 22.355469 5.832031 22.367188 5.832031 C 22.382812 5.832031 22.390625 5.804688 22.390625 5.773438 C 22.390625 5.738281 22.402344 5.691406 22.414062 5.667969 C 22.453125 5.59375 22.511719 5.371094 22.511719 5.300781 C 22.511719 5.261719 22.523438 5.230469 22.535156 5.230469 C 22.550781 5.230469 22.558594 5.199219 22.558594 5.160156 C 22.558594 5.121094 22.570312 5.089844 22.585938 5.089844 C 22.597656 5.089844 22.609375 5.054688 22.609375 5.015625 C 22.609375 4.976562 22.617188 4.945312 22.632812 4.945312 C 22.644531 4.945312 22.65625 4.910156 22.65625 4.871094 C 22.65625 4.832031 22.667969 4.800781 22.679688 4.800781 C 22.691406 4.800781 22.703125 4.757812 22.703125 4.703125 C 22.703125 4.652344 22.714844 4.609375 22.726562 4.609375 C 22.742188 4.609375 22.753906 4.582031 22.753906 4.550781 C 22.753906 4.515625 22.761719 4.484375 22.777344 4.476562 C 22.789062 4.46875 22.800781 4.433594 22.800781 4.402344 C 22.800781 4.371094 22.8125 4.339844 22.824219 4.332031 C 22.835938 4.324219 22.847656 4.292969 22.847656 4.261719 C 22.847656 4.230469 22.859375 4.195312 22.871094 4.1875 C 22.886719 4.179688 22.894531 4.140625 22.894531 4.105469 C 22.894531 4.066406 22.90625 4.027344 22.921875 4.019531 C 22.933594 4.011719 22.945312 3.972656 22.945312 3.933594 C 22.945312 3.894531 22.953125 3.863281 22.96875 3.863281 C 22.980469 3.863281 22.992188 3.832031 22.992188 3.792969 C 22.992188 3.753906 23.003906 3.71875 23.015625 3.71875 C 23.027344 3.71875 23.039062 3.6875 23.039062 3.648438 C 23.039062 3.609375 23.050781 3.574219 23.0625 3.574219 C 23.078125 3.574219 23.089844 3.542969 23.089844 3.503906 C 23.089844 3.464844 23.097656 3.429688 23.113281 3.421875 C 23.125 3.410156 23.136719 3.375 23.136719 3.335938 C 23.136719 3.296875 23.148438 3.265625 23.160156 3.265625 C 23.171875 3.265625 23.183594 3.230469 23.183594 3.191406 C 23.183594 3.152344 23.195312 3.121094 23.207031 3.121094 C 23.238281 3.121094 23.238281 2.574219 23.207031 2.554688 C 23.195312 2.546875 23.183594 2.515625 23.183594 2.484375 C 23.183594 2.449219 23.171875 2.425781 23.160156 2.425781 C 23.148438 2.425781 23.136719 2.410156 23.136719 2.390625 C 23.136719 2.351562 22.933594 2.136719 22.898438 2.136719 C 22.882812 2.136719 22.847656 2.113281 22.820312 2.089844 C 22.789062 2.0625 22.742188 2.039062 22.710938 2.039062 C 22.679688 2.039062 22.65625 2.027344 22.65625 2.015625 C 22.65625 2.003906 22.625 1.992188 22.585938 1.992188 C 22.542969 1.992188 22.511719 1.980469 22.511719 1.96875 C 22.511719 1.953125 22.480469 1.945312 22.441406 1.945312 C 22.402344 1.945312 22.367188 1.933594 22.367188 1.921875 C 22.367188 1.90625 22.332031 1.894531 22.285156 1.894531 C 22.238281 1.894531 22.199219 1.886719 22.199219 1.871094 C 22.199219 1.859375 22.167969 1.847656 22.128906 1.847656 C 22.089844 1.847656 22.054688 1.835938 22.054688 1.824219 C 22.054688 1.8125 22.023438 1.800781 21.984375 1.800781 C 21.945312 1.800781 21.910156 1.789062 21.910156 1.777344 C 21.910156 1.761719 21.878906 1.753906 21.839844 1.753906 C 21.800781 1.753906 21.765625 1.742188 21.757812 1.726562 C 21.746094 1.714844 21.710938 1.703125 21.671875 1.703125 C 21.632812 1.703125 21.597656 1.691406 21.589844 1.679688 C 21.578125 1.667969 21.550781 1.65625 21.527344 1.65625 C 21.5 1.65625 21.460938 1.644531 21.4375 1.632812 C 21.367188 1.597656 21.039062 1.503906 20.933594 1.492188 C 20.878906 1.488281 20.832031 1.472656 20.832031 1.460938 C 20.832031 1.449219 20.800781 1.441406 20.761719 1.441406 C 20.71875 1.441406 20.6875 1.429688 20.6875 1.414062 C 20.6875 1.402344 20.65625 1.390625 20.617188 1.390625 C 20.578125 1.390625 20.542969 1.382812 20.542969 1.367188 C 20.542969 1.355469 20.511719 1.34375 20.472656 1.34375 C 20.433594 1.34375 20.398438 1.332031 20.398438 1.320312 C 20.398438 1.308594 20.367188 1.296875 20.328125 1.296875 C 20.289062 1.296875 20.253906 1.285156 20.242188 1.273438 C 20.234375 1.257812 20.199219 1.246094 20.160156 1.246094 C 20.121094 1.246094 20.089844 1.238281 20.089844 1.222656 C 20.089844 1.210938 20.054688 1.199219 20.015625 1.199219 C 19.976562 1.199219 19.945312 1.1875 19.945312 1.175781 C 19.945312 1.164062 19.910156 1.152344 19.871094 1.152344 C 19.832031 1.152344 19.800781 1.140625 19.800781 1.128906 C 19.800781 1.113281 19.761719 1.105469 19.71875 1.105469 C 19.671875 1.105469 19.628906 1.09375 19.621094 1.078125 C 19.613281 1.066406 19.578125 1.054688 19.546875 1.054688 C 19.515625 1.054688 19.484375 1.046875 19.476562 1.03125 C 19.46875 1.019531 19.433594 1.007812 19.402344 1.007812 C 19.371094 1.007812 19.339844 0.996094 19.332031 0.984375 C 19.324219 0.972656 19.292969 0.960938 19.261719 0.960938 C 19.230469 0.960938 19.195312 0.949219 19.1875 0.9375 C 19.179688 0.921875 19.140625 0.910156 19.105469 0.910156 C 19.066406 0.910156 19.027344 0.902344 19.019531 0.886719 C 19.011719 0.875 18.972656 0.863281 18.933594 0.863281 C 18.894531 0.863281 18.863281 0.851562 18.863281 0.839844 C 18.863281 0.828125 18.832031 0.816406 18.792969 0.816406 C 18.753906 0.816406 18.71875 0.804688 18.71875 0.792969 C 18.71875 0.777344 18.6875 0.769531 18.648438 0.769531 C 18.609375 0.769531 18.574219 0.757812 18.574219 0.742188 C 18.574219 0.730469 18.542969 0.71875 18.503906 0.71875 C 18.464844 0.71875 18.429688 0.710938 18.421875 0.695312 C 18.410156 0.683594 18.375 0.671875 18.335938 0.671875 C 18.296875 0.671875 18.265625 0.660156 18.265625 0.648438 C 18.265625 0.636719 18.238281 0.625 18.203125 0.625 C 18.171875 0.625 18.125 0.613281 18.101562 0.601562 C 18.035156 0.566406 17.808594 0.503906 17.746094 0.503906 C 17.714844 0.503906 17.683594 0.492188 17.675781 0.480469 C 17.667969 0.46875 17.625 0.457031 17.578125 0.457031 C 17.53125 0.457031 17.496094 0.445312 17.496094 0.433594 C 17.496094 0.417969 17.46875 0.40625 17.4375 0.40625 C 17.402344 0.40625 17.375 0.398438 17.375 0.382812 C 17.375 0.371094 17.34375 0.359375 17.304688 0.359375 C 17.265625 0.359375 17.230469 0.347656 17.230469 0.335938 C 17.230469 0.324219 17.199219 0.3125 17.160156 0.3125 C 17.121094 0.3125 17.085938 0.300781 17.074219 0.289062 C 17.066406 0.273438 17.023438 0.265625 16.980469 0.265625 C 16.933594 0.265625 16.894531 0.253906 16.894531 0.238281 C 16.894531 0.226562 16.863281 0.214844 16.824219 0.214844 C 16.785156 0.214844 16.753906 0.207031 16.753906 0.191406 C 16.753906 0.179688 16.71875 0.167969 16.679688 0.167969 C 16.640625 0.167969 16.609375 0.15625 16.609375 0.144531 C 16.609375 0.128906 16.574219 0.121094 16.535156 0.121094 C 16.496094 0.121094 16.464844 0.109375 16.464844 0.0976562 C 16.464844 0.0820312 16.425781 0.0703125 16.382812 0.0703125 C 16.335938 0.0703125 16.296875 0.0585938 16.289062 0.0429688 C 16.273438 -0.0117188 8.476562 -0.0117188 8.316406 0.0429688 M 9.210938 3.980469 C 9.214844 6.308594 9.207031 7.167969 9.1875 7.191406 C 9.140625 7.25 8.433594 7.238281 8.402344 7.175781 C 8.347656 7.078125 8.378906 1.132812 8.433594 1.023438 C 8.519531 0.847656 8.65625 0.789062 8.953125 0.796875 L 9.203125 0.804688 L 9.210938 3.980469 M 14.644531 0.859375 C 14.640625 0.890625 14.605469 1.015625 14.566406 1.136719 C 14.527344 1.257812 14.472656 1.429688 14.445312 1.523438 C 14.417969 1.617188 14.371094 1.761719 14.339844 1.847656 L 14.289062 2.003906 L 12.675781 2.015625 C 10.605469 2.03125 10.839844 1.886719 10.828125 3.152344 C 10.816406 4.507812 10.675781 4.390625 12.347656 4.390625 C 12.996094 4.390625 13.535156 4.398438 13.542969 4.40625 C 13.546875 4.414062 13.535156 4.476562 13.511719 4.542969 C 13.488281 4.613281 13.445312 4.75 13.414062 4.847656 C 13.386719 4.945312 13.34375 5.085938 13.320312 5.160156 C 13.296875 5.234375 13.253906 5.367188 13.226562 5.460938 C 13.199219 5.550781 13.144531 5.730469 13.105469 5.855469 C 12.953125 6.351562 12.816406 6.789062 12.753906 6.992188 C 12.675781 7.253906 12.839844 7.226562 11.292969 7.21875 L 9.996094 7.210938 L 9.988281 4.03125 C 9.988281 2.28125 9.988281 0.839844 9.996094 0.820312 C 10.003906 0.796875 10.484375 0.792969 12.328125 0.796875 L 14.652344 0.804688 L 14.644531 0.859375 M 16.066406 0.851562 C 16.269531 0.914062 16.300781 0.945312 16.261719 1.066406 C 16.246094 1.121094 16.207031 1.246094 16.175781 1.34375 C 16.144531 1.441406 16.101562 1.582031 16.078125 1.65625 C 16.054688 1.730469 16.019531 1.84375 16 1.90625 C 15.980469 1.972656 15.890625 2.261719 15.804688 2.542969 C 15.714844 2.828125 15.632812 3.09375 15.625 3.132812 C 15.613281 3.171875 15.578125 3.285156 15.546875 3.382812 C 15.515625 3.484375 15.460938 3.644531 15.433594 3.742188 C 15.402344 3.84375 15.347656 4.015625 15.3125 4.128906 C 15.277344 4.238281 15.222656 4.40625 15.195312 4.5 C 15.167969 4.59375 15.113281 4.769531 15.074219 4.894531 C 15.035156 5.019531 14.953125 5.285156 14.890625 5.484375 C 14.734375 5.992188 14.59375 6.445312 14.546875 6.601562 C 14.523438 6.671875 14.480469 6.8125 14.449219 6.910156 C 14.421875 7.011719 14.382812 7.117188 14.367188 7.152344 L 14.339844 7.210938 L 13.9375 7.21875 C 13.46875 7.226562 13.484375 7.238281 13.566406 6.980469 C 13.597656 6.882812 13.648438 6.722656 13.679688 6.625 C 13.710938 6.523438 13.753906 6.382812 13.777344 6.3125 C 13.796875 6.238281 13.839844 6.097656 13.871094 6 C 13.902344 5.902344 13.933594 5.796875 13.945312 5.773438 C 13.957031 5.746094 13.96875 5.703125 13.976562 5.675781 C 13.984375 5.648438 14.011719 5.554688 14.039062 5.464844 C 14.066406 5.375 14.109375 5.238281 14.132812 5.152344 C 14.25 4.777344 14.476562 4.039062 14.492188 3.984375 C 14.503906 3.949219 14.539062 3.84375 14.566406 3.742188 C 14.597656 3.644531 14.628906 3.542969 14.640625 3.515625 C 14.648438 3.488281 14.683594 3.386719 14.710938 3.289062 C 14.742188 3.1875 14.785156 3.046875 14.808594 2.976562 C 14.832031 2.902344 14.875 2.761719 14.902344 2.664062 C 14.933594 2.566406 14.964844 2.460938 14.976562 2.4375 C 14.988281 2.410156 15 2.367188 15.007812 2.339844 C 15.019531 2.292969 15.105469 2.015625 15.3125 1.347656 C 15.480469 0.796875 15.609375 0.714844 16.066406 0.851562 M 17.398438 1.261719 C 17.550781 1.308594 17.734375 1.367188 17.808594 1.390625 C 17.878906 1.414062 17.988281 1.445312 18.046875 1.464844 C 18.105469 1.480469 18.175781 1.5 18.203125 1.511719 C 18.230469 1.523438 18.332031 1.554688 18.433594 1.585938 C 18.53125 1.613281 18.632812 1.644531 18.660156 1.65625 C 18.6875 1.667969 18.789062 1.699219 18.886719 1.726562 C 18.988281 1.757812 19.128906 1.800781 19.199219 1.824219 C 19.375 1.878906 19.5625 1.9375 19.738281 1.992188 C 19.820312 2.015625 20.117188 2.109375 20.398438 2.195312 C 20.683594 2.285156 20.949219 2.367188 20.988281 2.375 C 21.058594 2.394531 21.324219 2.476562 21.601562 2.566406 C 21.671875 2.589844 21.8125 2.632812 21.910156 2.664062 C 22.011719 2.691406 22.113281 2.726562 22.140625 2.734375 C 22.167969 2.746094 22.234375 2.769531 22.292969 2.785156 C 22.414062 2.820312 22.421875 2.835938 22.394531 2.90625 C 22.382812 2.9375 22.339844 3.078125 22.296875 3.214844 C 22.253906 3.355469 22.199219 3.527344 22.175781 3.601562 C 22.152344 3.671875 22.101562 3.839844 22.058594 3.972656 C 22.019531 4.105469 21.9375 4.375 21.875 4.570312 C 21.816406 4.769531 21.730469 5.039062 21.691406 5.171875 C 21.652344 5.304688 21.597656 5.472656 21.574219 5.542969 C 21.550781 5.617188 21.496094 5.789062 21.457031 5.929688 C 21.414062 6.066406 21.359375 6.238281 21.335938 6.3125 C 21.3125 6.382812 21.269531 6.523438 21.238281 6.625 C 21.167969 6.867188 21.097656 7.078125 21.066406 7.15625 L 21.042969 7.222656 L 15.191406 7.222656 L 15.191406 7.167969 C 15.191406 7.140625 15.21875 7.035156 15.25 6.933594 C 15.367188 6.566406 15.453125 6.292969 15.503906 6.121094 C 15.53125 6.019531 15.566406 5.917969 15.574219 5.890625 C 15.585938 5.867188 15.609375 5.796875 15.625 5.734375 C 15.640625 5.675781 15.660156 5.605469 15.671875 5.578125 C 15.683594 5.554688 15.703125 5.484375 15.71875 5.425781 C 15.734375 5.363281 15.757812 5.296875 15.769531 5.273438 C 15.78125 5.25 15.792969 5.214844 15.792969 5.195312 C 15.792969 5.175781 15.800781 5.140625 15.8125 5.117188 C 15.824219 5.09375 15.847656 5.027344 15.863281 4.96875 C 15.882812 4.910156 15.914062 4.800781 15.9375 4.726562 C 15.960938 4.65625 16.015625 4.484375 16.054688 4.34375 C 16.136719 4.082031 16.203125 3.859375 16.320312 3.492188 C 16.355469 3.375 16.410156 3.195312 16.441406 3.097656 C 16.46875 2.996094 16.5 2.894531 16.511719 2.867188 C 16.523438 2.839844 16.554688 2.738281 16.585938 2.640625 C 16.613281 2.539062 16.65625 2.402344 16.679688 2.328125 C 16.703125 2.253906 16.757812 2.082031 16.800781 1.945312 C 16.84375 1.804688 16.898438 1.632812 16.917969 1.558594 C 16.941406 1.488281 16.976562 1.378906 16.992188 1.320312 C 17.011719 1.261719 17.027344 1.203125 17.035156 1.195312 C 17.050781 1.164062 17.113281 1.175781 17.398438 1.261719 M 17.519531 2.742188 C 17.421875 2.808594 17.347656 2.941406 17.28125 3.191406 C 17.261719 3.25 17.230469 3.359375 17.207031 3.433594 C 17.183594 3.503906 17.148438 3.617188 17.128906 3.683594 C 17.109375 3.75 17.042969 3.960938 16.980469 4.15625 C 16.820312 4.667969 16.863281 4.875 17.140625 4.957031 C 17.171875 4.964844 17.292969 5.003906 17.410156 5.039062 C 17.53125 5.078125 17.867188 5.179688 18.15625 5.265625 C 18.445312 5.355469 18.742188 5.445312 18.816406 5.46875 C 18.886719 5.492188 19.027344 5.539062 19.128906 5.566406 C 19.226562 5.597656 19.328125 5.628906 19.355469 5.640625 C 19.382812 5.648438 19.480469 5.679688 19.570312 5.710938 C 19.664062 5.738281 19.839844 5.792969 19.964844 5.832031 C 20.503906 6.003906 20.59375 5.941406 20.808594 5.230469 C 20.839844 5.132812 20.890625 4.960938 20.929688 4.847656 C 21.195312 4.019531 21.207031 3.917969 21.082031 3.769531 C 21.019531 3.695312 20.898438 3.625 20.839844 3.625 C 20.820312 3.625 20.789062 3.613281 20.765625 3.601562 C 20.742188 3.589844 20.652344 3.558594 20.566406 3.535156 C 20.261719 3.441406 20.050781 3.375 19.847656 3.3125 C 19.734375 3.277344 19.5625 3.222656 19.464844 3.191406 C 19.363281 3.160156 19.234375 3.121094 19.175781 3.101562 C 19.117188 3.082031 18.875 3.007812 18.636719 2.9375 C 18.398438 2.863281 18.132812 2.78125 18.046875 2.753906 C 17.804688 2.675781 17.621094 2.671875 17.519531 2.742188 M 14.011719 2.851562 C 14.019531 2.90625 13.832031 3.542969 13.792969 3.59375 C 13.75 3.652344 11.625 3.636719 11.59375 3.578125 C 11.558594 3.511719 11.558594 2.847656 11.597656 2.8125 C 11.617188 2.789062 11.910156 2.785156 12.816406 2.789062 L 14.003906 2.796875 L 14.011719 2.851562 M 18.101562 3.574219 C 18.132812 3.585938 18.238281 3.617188 18.335938 3.648438 C 18.433594 3.675781 18.539062 3.710938 18.5625 3.71875 C 18.589844 3.730469 18.660156 3.75 18.71875 3.769531 C 18.78125 3.785156 18.847656 3.804688 18.875 3.816406 C 18.902344 3.828125 18.972656 3.847656 19.03125 3.863281 C 19.089844 3.882812 19.230469 3.925781 19.34375 3.960938 C 19.457031 3.996094 19.628906 4.050781 19.726562 4.082031 C 20.320312 4.257812 20.308594 4.253906 20.28125 4.328125 C 20.269531 4.355469 20.226562 4.492188 20.183594 4.632812 C 20.042969 5.097656 20.101562 5.066406 19.664062 4.929688 C 19.46875 4.871094 19.253906 4.804688 19.1875 4.785156 C 19.121094 4.765625 19.007812 4.730469 18.9375 4.707031 C 18.863281 4.683594 18.722656 4.636719 18.625 4.609375 C 18.523438 4.578125 18.421875 4.546875 18.394531 4.535156 C 18.371094 4.527344 18.300781 4.503906 18.238281 4.488281 C 18.179688 4.472656 18.109375 4.449219 18.085938 4.441406 C 18.058594 4.429688 17.988281 4.40625 17.929688 4.390625 C 17.867188 4.375 17.804688 4.359375 17.789062 4.355469 C 17.753906 4.34375 17.75 4.21875 17.78125 4.15625 C 17.792969 4.136719 17.828125 4.035156 17.855469 3.9375 C 17.886719 3.835938 17.917969 3.738281 17.929688 3.714844 C 17.941406 3.691406 17.953125 3.652344 17.953125 3.628906 C 17.953125 3.550781 17.996094 3.535156 18.101562 3.574219 M 22.613281 8.007812 L 23.207031 8.023438 L 23.207031 12.058594 C 23.207031 16.257812 23.207031 16.269531 23.113281 16.523438 C 22.917969 17.039062 22.527344 17.398438 21.988281 17.550781 L 21.804688 17.605469 L 14.492188 17.609375 L 7.179688 17.617188 L 7.15625 17.539062 C 7.140625 17.5 7.128906 17.433594 7.128906 17.398438 C 7.128906 17.363281 7.117188 17.28125 7.105469 17.214844 C 7.082031 17.089844 7.050781 16.894531 7.007812 16.609375 C 6.992188 16.507812 6.972656 16.367188 6.957031 16.289062 C 6.945312 16.214844 6.925781 16.089844 6.914062 16.015625 C 6.902344 15.9375 6.878906 15.796875 6.863281 15.695312 C 6.851562 15.597656 6.828125 15.457031 6.816406 15.382812 C 6.804688 15.3125 6.78125 15.171875 6.769531 15.070312 C 6.753906 14.972656 6.730469 14.828125 6.71875 14.753906 C 6.707031 14.679688 6.6875 14.554688 6.671875 14.476562 C 6.660156 14.402344 6.640625 14.257812 6.625 14.160156 C 6.585938 13.890625 6.554688 13.683594 6.527344 13.535156 C 6.515625 13.464844 6.472656 13.1875 6.433594 12.925781 C 6.390625 12.660156 6.332031 12.269531 6.300781 12.058594 C 6.269531 11.847656 6.230469 11.59375 6.214844 11.496094 C 6.199219 11.398438 6.179688 11.265625 6.167969 11.207031 C 6.15625 11.148438 6.136719 11.011719 6.121094 10.90625 C 6.105469 10.800781 6.082031 10.652344 6.070312 10.578125 C 6.019531 10.277344 6 10.15625 5.976562 9.984375 C 5.960938 9.886719 5.941406 9.746094 5.929688 9.671875 C 5.917969 9.597656 5.894531 9.460938 5.878906 9.359375 C 5.863281 9.261719 5.84375 9.121094 5.832031 9.046875 C 5.804688 8.890625 5.773438 8.671875 5.734375 8.425781 C 5.71875 8.324219 5.699219 8.199219 5.683594 8.140625 C 5.671875 8.082031 5.667969 8.027344 5.675781 8.015625 C 5.691406 7.988281 21.652344 7.980469 22.613281 8.007812 M 10.65625 8.847656 C 10.429688 8.945312 10.417969 8.984375 10.410156 9.757812 L 10.402344 10.402344 L 8.941406 10.414062 C 8.089844 10.421875 7.457031 10.4375 7.429688 10.449219 C 7.148438 10.582031 7.148438 11 7.429688 11.144531 C 7.523438 11.195312 7.558594 11.195312 8.96875 11.203125 L 10.417969 11.210938 L 10.410156 12.800781 L 10.402344 14.386719 L 9.359375 14.398438 C 8.175781 14.414062 8.1875 14.410156 8.074219 14.601562 C 7.960938 14.796875 8.015625 15.019531 8.207031 15.128906 C 8.289062 15.179688 8.335938 15.179688 9.347656 15.191406 L 10.402344 15.203125 L 10.414062 15.863281 C 10.429688 16.695312 10.464844 16.777344 10.800781 16.777344 C 11.144531 16.777344 11.195312 16.660156 11.203125 15.835938 L 11.210938 15.191406 L 14.398438 15.191406 L 14.398438 15.8125 C 14.398438 16.515625 14.414062 16.589844 14.574219 16.714844 C 14.699219 16.808594 14.957031 16.800781 15.0625 16.695312 C 15.175781 16.578125 15.179688 16.558594 15.191406 15.863281 L 15.203125 15.203125 L 18.394531 15.203125 L 18.40625 15.863281 C 18.421875 16.679688 18.464844 16.777344 18.804688 16.777344 C 19.140625 16.777344 19.183594 16.671875 19.199219 15.851562 L 19.210938 15.203125 L 20.460938 15.191406 C 21.320312 15.183594 21.726562 15.171875 21.769531 15.152344 C 22.050781 15.023438 22.054688 14.597656 21.777344 14.457031 C 21.691406 14.414062 21.605469 14.410156 20.441406 14.40625 L 19.199219 14.398438 L 19.199219 11.210938 L 20.441406 11.203125 C 21.585938 11.195312 21.691406 11.191406 21.773438 11.152344 C 22.039062 11.019531 22.058594 10.625 21.804688 10.472656 C 21.738281 10.429688 21.636719 10.425781 20.472656 10.414062 L 19.210938 10.402344 L 19.1875 9.082031 L 19.121094 8.992188 C 18.980469 8.808594 18.808594 8.761719 18.625 8.863281 C 18.425781 8.96875 18.421875 8.988281 18.40625 9.742188 L 18.394531 10.402344 L 15.203125 10.402344 L 15.191406 9.742188 C 15.179688 8.980469 15.171875 8.960938 14.96875 8.859375 C 14.820312 8.785156 14.675781 8.800781 14.550781 8.910156 C 14.417969 9.027344 14.414062 9.050781 14.398438 9.757812 L 14.386719 10.402344 L 11.207031 10.417969 L 11.207031 9.839844 C 11.207031 9.066406 11.179688 8.953125 10.957031 8.855469 C 10.839844 8.800781 10.765625 8.796875 10.65625 8.847656 M 14.398438 12.804688 L 14.398438 14.398438 L 11.207031 14.398438 L 11.207031 11.207031 L 14.398438 11.207031 L 14.398438 12.804688 M 18.40625 12.804688 L 18.40625 14.398438 L 15.191406 14.398438 L 15.191406 11.207031 L 18.40625 11.207031 L 18.40625 12.804688 M 11.566406 20.867188 C 12.515625 21.1875 12.695312 22.429688 11.875 22.988281 C 10.894531 23.65625 9.652344 22.660156 10.085938 21.550781 C 10.3125 20.96875 10.96875 20.664062 11.566406 20.867188 M 20.3125 20.84375 C 21.519531 21.210938 21.472656 22.890625 20.25 23.171875 C 19.191406 23.414062 18.398438 22.226562 19.011719 21.316406 C 19.285156 20.910156 19.851562 20.703125 20.3125 20.84375 "/>
<path style=" stroke:none;fill-rule:evenodd;fill:rgb(54.509804%,28.627451%,5.098039%);fill-opacity:1;" d="M 8.589844 0.859375 C 8.371094 1 8.390625 0.707031 8.382812 4.121094 C 8.378906 6.191406 8.382812 7.144531 8.402344 7.175781 C 8.433594 7.238281 9.140625 7.25 9.1875 7.191406 C 9.207031 7.167969 9.214844 6.308594 9.210938 3.980469 L 9.203125 0.804688 L 8.953125 0.796875 C 8.710938 0.789062 8.695312 0.792969 8.589844 0.859375 M 9.996094 0.820312 C 9.988281 0.839844 9.988281 2.28125 9.988281 4.03125 L 9.996094 7.210938 L 11.292969 7.21875 C 12.839844 7.226562 12.675781 7.253906 12.753906 6.992188 C 12.816406 6.789062 12.953125 6.351562 13.105469 5.855469 C 13.144531 5.730469 13.199219 5.550781 13.226562 5.460938 C 13.253906 5.367188 13.296875 5.234375 13.320312 5.160156 C 13.34375 5.085938 13.386719 4.945312 13.414062 4.847656 C 13.445312 4.75 13.488281 4.613281 13.511719 4.542969 C 13.535156 4.476562 13.546875 4.414062 13.542969 4.40625 C 13.535156 4.398438 12.996094 4.390625 12.347656 4.390625 C 10.675781 4.390625 10.816406 4.507812 10.828125 3.152344 C 10.839844 1.886719 10.605469 2.03125 12.675781 2.015625 L 14.289062 2.003906 L 14.339844 1.847656 C 14.371094 1.761719 14.417969 1.617188 14.445312 1.523438 C 14.472656 1.429688 14.527344 1.257812 14.566406 1.136719 C 14.605469 1.015625 14.640625 0.890625 14.644531 0.859375 L 14.652344 0.804688 L 12.328125 0.796875 C 10.484375 0.792969 10.003906 0.796875 9.996094 0.820312 M 15.585938 0.851562 C 15.425781 0.945312 15.453125 0.886719 15.113281 1.980469 C 15.0625 2.152344 15.015625 2.3125 15.007812 2.339844 C 15 2.367188 14.988281 2.410156 14.976562 2.4375 C 14.964844 2.460938 14.933594 2.566406 14.902344 2.664062 C 14.875 2.761719 14.832031 2.902344 14.808594 2.976562 C 14.785156 3.046875 14.742188 3.1875 14.710938 3.289062 C 14.683594 3.386719 14.648438 3.488281 14.640625 3.515625 C 14.628906 3.542969 14.597656 3.644531 14.566406 3.742188 C 14.539062 3.84375 14.503906 3.949219 14.492188 3.984375 C 14.476562 4.039062 14.25 4.777344 14.132812 5.152344 C 14.109375 5.238281 14.066406 5.375 14.039062 5.464844 C 14.011719 5.554688 13.984375 5.648438 13.976562 5.675781 C 13.96875 5.703125 13.957031 5.746094 13.945312 5.773438 C 13.933594 5.796875 13.902344 5.902344 13.871094 6 C 13.839844 6.097656 13.796875 6.238281 13.777344 6.3125 C 13.753906 6.382812 13.710938 6.523438 13.679688 6.625 C 13.648438 6.722656 13.597656 6.882812 13.566406 6.980469 C 13.484375 7.238281 13.46875 7.226562 13.9375 7.21875 L 14.339844 7.210938 L 14.367188 7.152344 C 14.382812 7.117188 14.421875 7.011719 14.449219 6.910156 C 14.480469 6.8125 14.523438 6.671875 14.546875 6.601562 C 14.59375 6.445312 14.734375 5.992188 14.890625 5.484375 C 14.953125 5.285156 15.035156 5.019531 15.074219 4.894531 C 15.113281 4.769531 15.167969 4.59375 15.195312 4.5 C 15.222656 4.40625 15.277344 4.238281 15.3125 4.128906 C 15.347656 4.015625 15.402344 3.84375 15.433594 3.742188 C 15.460938 3.644531 15.515625 3.484375 15.546875 3.382812 C 15.578125 3.285156 15.613281 3.171875 15.625 3.132812 C 15.632812 3.09375 15.714844 2.828125 15.804688 2.542969 C 15.890625 2.261719 15.980469 1.972656 16 1.90625 C 16.019531 1.84375 16.054688 1.730469 16.078125 1.65625 C 16.101562 1.582031 16.144531 1.441406 16.175781 1.34375 C 16.207031 1.246094 16.246094 1.121094 16.261719 1.066406 C 16.324219 0.867188 15.820312 0.707031 15.585938 0.851562 M 9.167969 3.984375 L 9.167969 7.152344 L 8.421875 7.152344 L 8.429688 4.121094 C 8.4375 0.835938 8.429688 1.039062 8.5625 0.925781 C 8.648438 0.851562 8.757812 0.820312 8.96875 0.820312 L 9.167969 0.816406 L 9.167969 3.984375 M 14.617188 0.84375 C 14.617188 0.871094 14.582031 0.992188 14.542969 1.09375 C 14.535156 1.117188 14.5 1.222656 14.472656 1.320312 C 14.441406 1.417969 14.410156 1.523438 14.398438 1.546875 C 14.390625 1.574219 14.355469 1.679688 14.324219 1.78125 L 14.269531 1.96875 L 14.050781 1.972656 C 13.933594 1.972656 13.207031 1.980469 12.441406 1.988281 L 11.046875 2.003906 L 10.964844 2.070312 C 10.78125 2.207031 10.777344 2.246094 10.777344 3.199219 C 10.777344 4.125 10.78125 4.15625 10.914062 4.292969 C 11.039062 4.417969 11.03125 4.414062 12.300781 4.414062 L 13.488281 4.414062 L 13.488281 4.46875 C 13.488281 4.496094 13.464844 4.582031 13.441406 4.664062 C 13.414062 4.746094 13.363281 4.898438 13.328125 5.003906 C 13.292969 5.109375 13.257812 5.226562 13.246094 5.269531 C 13.230469 5.332031 13.167969 5.546875 12.957031 6.226562 C 12.914062 6.359375 12.863281 6.527344 12.839844 6.601562 C 12.816406 6.671875 12.785156 6.78125 12.769531 6.839844 C 12.753906 6.898438 12.730469 6.964844 12.71875 6.988281 C 12.707031 7.011719 12.695312 7.050781 12.695312 7.078125 C 12.695312 7.175781 12.683594 7.175781 11.324219 7.171875 L 10.019531 7.164062 L 10.011719 4.042969 C 10.011719 2.328125 10.011719 0.898438 10.019531 0.871094 L 10.03125 0.816406 L 12.324219 0.816406 C 14.066406 0.816406 14.617188 0.824219 14.617188 0.84375 M 15.851562 0.839844 C 15.859375 0.851562 15.890625 0.863281 15.917969 0.863281 C 15.972656 0.863281 16.21875 0.945312 16.242188 0.972656 C 16.25 0.976562 16.246094 1.007812 16.230469 1.039062 C 16.21875 1.066406 16.191406 1.140625 16.175781 1.199219 C 16.160156 1.257812 16.117188 1.398438 16.078125 1.511719 C 16.042969 1.625 15.972656 1.851562 15.925781 2.015625 C 15.875 2.179688 15.816406 2.375 15.792969 2.449219 C 15.769531 2.519531 15.738281 2.628906 15.722656 2.6875 C 15.703125 2.746094 15.679688 2.816406 15.667969 2.835938 C 15.65625 2.859375 15.648438 2.902344 15.648438 2.925781 C 15.648438 2.953125 15.636719 2.980469 15.625 2.988281 C 15.609375 2.996094 15.601562 3.035156 15.601562 3.070312 C 15.601562 3.109375 15.589844 3.148438 15.574219 3.15625 C 15.5625 3.164062 15.550781 3.195312 15.550781 3.226562 C 15.550781 3.257812 15.542969 3.292969 15.527344 3.300781 C 15.515625 3.308594 15.503906 3.347656 15.503906 3.382812 C 15.503906 3.421875 15.492188 3.460938 15.480469 3.46875 C 15.46875 3.476562 15.457031 3.507812 15.457031 3.539062 C 15.457031 3.570312 15.445312 3.605469 15.433594 3.613281 C 15.417969 3.621094 15.40625 3.648438 15.40625 3.671875 C 15.40625 3.699219 15.398438 3.738281 15.386719 3.761719 C 15.375 3.785156 15.351562 3.851562 15.335938 3.910156 C 15.320312 3.972656 15.296875 4.042969 15.289062 4.066406 C 15.277344 4.09375 15.246094 4.195312 15.214844 4.296875 C 15.1875 4.394531 15.152344 4.496094 15.144531 4.523438 C 15.132812 4.550781 15.113281 4.613281 15.097656 4.667969 C 15.074219 4.757812 14.945312 5.171875 14.820312 5.574219 C 14.785156 5.675781 14.761719 5.78125 14.761719 5.804688 C 14.761719 5.832031 14.75 5.859375 14.734375 5.867188 C 14.722656 5.875 14.710938 5.902344 14.710938 5.929688 C 14.710938 5.957031 14.703125 5.996094 14.691406 6.019531 C 14.679688 6.042969 14.65625 6.109375 14.640625 6.167969 C 14.625 6.226562 14.601562 6.292969 14.589844 6.316406 C 14.578125 6.339844 14.566406 6.378906 14.566406 6.40625 C 14.566406 6.433594 14.558594 6.460938 14.542969 6.46875 C 14.53125 6.476562 14.519531 6.515625 14.519531 6.550781 C 14.519531 6.589844 14.507812 6.628906 14.496094 6.636719 C 14.484375 6.644531 14.472656 6.675781 14.472656 6.707031 C 14.472656 6.738281 14.460938 6.773438 14.449219 6.78125 C 14.433594 6.789062 14.425781 6.820312 14.425781 6.851562 C 14.425781 6.882812 14.414062 6.914062 14.398438 6.925781 C 14.386719 6.933594 14.375 6.96875 14.375 7.003906 C 14.375 7.144531 14.347656 7.152344 13.933594 7.152344 C 13.566406 7.152344 13.480469 7.132812 13.585938 7.066406 C 13.597656 7.058594 13.609375 7.023438 13.609375 6.984375 C 13.609375 6.945312 13.617188 6.90625 13.632812 6.898438 C 13.644531 6.890625 13.65625 6.859375 13.65625 6.828125 C 13.65625 6.796875 13.667969 6.765625 13.679688 6.757812 C 13.691406 6.746094 13.703125 6.714844 13.703125 6.683594 C 13.703125 6.652344 13.714844 6.621094 13.726562 6.613281 C 13.742188 6.605469 13.753906 6.566406 13.753906 6.527344 C 13.753906 6.488281 13.761719 6.453125 13.777344 6.445312 C 13.789062 6.4375 13.800781 6.40625 13.800781 6.382812 C 13.800781 6.355469 13.808594 6.316406 13.820312 6.292969 C 13.832031 6.269531 13.855469 6.203125 13.871094 6.144531 C 13.886719 6.085938 13.910156 6.015625 13.921875 5.988281 C 13.929688 5.960938 13.953125 5.890625 13.96875 5.832031 C 13.984375 5.773438 14.027344 5.632812 14.066406 5.519531 C 14.101562 5.40625 14.171875 5.179688 14.21875 5.015625 C 14.269531 4.851562 14.328125 4.65625 14.351562 4.585938 C 14.375 4.511719 14.40625 4.402344 14.421875 4.34375 C 14.4375 4.285156 14.460938 4.21875 14.472656 4.195312 C 14.484375 4.171875 14.496094 4.125 14.496094 4.09375 C 14.496094 4.058594 14.507812 4.03125 14.519531 4.03125 C 14.53125 4.03125 14.542969 4 14.542969 3.960938 C 14.542969 3.921875 14.554688 3.882812 14.566406 3.875 C 14.582031 3.867188 14.59375 3.835938 14.59375 3.804688 C 14.59375 3.773438 14.601562 3.738281 14.617188 3.730469 C 14.628906 3.722656 14.640625 3.6875 14.640625 3.648438 C 14.640625 3.609375 14.652344 3.570312 14.664062 3.5625 C 14.675781 3.554688 14.6875 3.527344 14.6875 3.503906 C 14.6875 3.476562 14.699219 3.4375 14.710938 3.414062 C 14.722656 3.390625 14.746094 3.324219 14.761719 3.265625 C 14.777344 3.203125 14.796875 3.136719 14.808594 3.113281 C 14.824219 3.089844 14.832031 3.054688 14.832031 3.035156 C 14.832031 3.015625 14.839844 2.980469 14.855469 2.957031 C 14.867188 2.933594 14.886719 2.867188 14.90625 2.808594 C 14.921875 2.75 14.941406 2.679688 14.953125 2.652344 C 14.960938 2.625 14.992188 2.527344 15.019531 2.4375 C 15.050781 2.34375 15.105469 2.160156 15.144531 2.027344 C 15.183594 1.894531 15.242188 1.707031 15.273438 1.609375 C 15.304688 1.507812 15.34375 1.378906 15.359375 1.320312 C 15.445312 1.011719 15.515625 0.910156 15.679688 0.851562 C 15.777344 0.8125 15.832031 0.808594 15.851562 0.839844 M 17.035156 1.195312 C 17.027344 1.203125 17.011719 1.261719 16.992188 1.320312 C 16.976562 1.378906 16.941406 1.488281 16.917969 1.558594 C 16.898438 1.632812 16.84375 1.804688 16.800781 1.945312 C 16.757812 2.082031 16.703125 2.253906 16.679688 2.328125 C 16.65625 2.402344 16.613281 2.539062 16.585938 2.640625 C 16.554688 2.738281 16.523438 2.839844 16.511719 2.867188 C 16.5 2.894531 16.46875 2.996094 16.441406 3.097656 C 16.410156 3.195312 16.355469 3.375 16.320312 3.492188 C 16.203125 3.859375 16.136719 4.082031 16.054688 4.34375 C 16.015625 4.484375 15.960938 4.65625 15.9375 4.726562 C 15.914062 4.800781 15.882812 4.910156 15.863281 4.96875 C 15.847656 5.027344 15.824219 5.09375 15.8125 5.117188 C 15.800781 5.140625 15.792969 5.175781 15.792969 5.195312 C 15.792969 5.214844 15.78125 5.25 15.769531 5.273438 C 15.757812 5.296875 15.734375 5.363281 15.71875 5.425781 C 15.703125 5.484375 15.683594 5.554688 15.671875 5.578125 C 15.660156 5.605469 15.640625 5.675781 15.625 5.734375 C 15.609375 5.796875 15.585938 5.867188 15.574219 5.890625 C 15.566406 5.917969 15.53125 6.019531 15.503906 6.121094 C 15.453125 6.292969 15.367188 6.566406 15.25 6.933594 C 15.21875 7.035156 15.191406 7.140625 15.191406 7.167969 L 15.191406 7.222656 L 21.042969 7.222656 L 21.066406 7.15625 C 21.097656 7.078125 21.167969 6.867188 21.238281 6.625 C 21.269531 6.523438 21.3125 6.382812 21.335938 6.3125 C 21.359375 6.238281 21.414062 6.066406 21.457031 5.929688 C 21.496094 5.789062 21.550781 5.617188 21.574219 5.542969 C 21.597656 5.472656 21.652344 5.304688 21.691406 5.171875 C 21.730469 5.039062 21.816406 4.769531 21.875 4.570312 C 21.9375 4.375 22.019531 4.105469 22.058594 3.972656 C 22.101562 3.839844 22.152344 3.671875 22.175781 3.601562 C 22.199219 3.527344 22.253906 3.355469 22.296875 3.214844 C 22.339844 3.078125 22.382812 2.9375 22.394531 2.90625 C 22.421875 2.835938 22.414062 2.820312 22.292969 2.785156 C 22.234375 2.769531 22.167969 2.746094 22.140625 2.734375 C 22.113281 2.726562 22.011719 2.691406 21.910156 2.664062 C 21.8125 2.632812 21.671875 2.589844 21.601562 2.566406 C 21.324219 2.476562 21.058594 2.394531 20.988281 2.375 C 20.949219 2.367188 20.683594 2.285156 20.398438 2.195312 C 20.117188 2.109375 19.820312 2.015625 19.738281 1.992188 C 19.5625 1.9375 19.375 1.878906 19.199219 1.824219 C 19.128906 1.800781 18.988281 1.757812 18.886719 1.726562 C 18.789062 1.699219 18.6875 1.667969 18.660156 1.65625 C 18.632812 1.644531 18.53125 1.613281 18.433594 1.585938 C 18.332031 1.554688 18.230469 1.523438 18.203125 1.511719 C 18.175781 1.5 18.105469 1.480469 18.046875 1.464844 C 17.988281 1.445312 17.878906 1.414062 17.808594 1.390625 C 17.230469 1.203125 17.050781 1.15625 17.035156 1.195312 M 17.519531 1.332031 C 17.59375 1.355469 17.710938 1.394531 17.785156 1.414062 C 17.855469 1.4375 17.996094 1.480469 18.097656 1.511719 C 18.195312 1.542969 18.296875 1.574219 18.324219 1.585938 C 18.351562 1.59375 18.449219 1.625 18.539062 1.652344 C 18.722656 1.707031 19.050781 1.808594 19.398438 1.917969 C 19.519531 1.953125 19.75 2.027344 19.90625 2.074219 C 20.066406 2.125 20.253906 2.183594 20.328125 2.207031 C 20.402344 2.230469 20.507812 2.261719 20.566406 2.28125 C 20.628906 2.296875 20.699219 2.316406 20.722656 2.328125 C 20.75 2.339844 20.820312 2.359375 20.878906 2.375 C 20.9375 2.390625 21.007812 2.414062 21.035156 2.425781 C 21.0625 2.433594 21.132812 2.457031 21.191406 2.472656 C 21.25 2.488281 21.320312 2.511719 21.339844 2.523438 C 21.363281 2.535156 21.40625 2.542969 21.429688 2.542969 C 21.457031 2.542969 21.484375 2.554688 21.492188 2.566406 C 21.5 2.582031 21.527344 2.59375 21.554688 2.59375 C 21.578125 2.59375 21.621094 2.601562 21.640625 2.613281 C 21.664062 2.625 21.753906 2.65625 21.839844 2.683594 C 22.449219 2.867188 22.390625 2.8125 22.296875 3.097656 C 22.273438 3.167969 22.222656 3.324219 22.1875 3.445312 C 22.152344 3.5625 22.09375 3.757812 22.054688 3.875 C 22.019531 3.996094 21.953125 4.207031 21.910156 4.34375 C 21.867188 4.484375 21.816406 4.65625 21.792969 4.726562 C 21.769531 4.800781 21.738281 4.910156 21.722656 4.96875 C 21.703125 5.027344 21.679688 5.09375 21.667969 5.117188 C 21.65625 5.140625 21.648438 5.175781 21.648438 5.195312 C 21.648438 5.214844 21.636719 5.25 21.625 5.273438 C 21.613281 5.296875 21.589844 5.363281 21.574219 5.425781 C 21.558594 5.484375 21.539062 5.554688 21.527344 5.578125 C 21.511719 5.625 21.476562 5.738281 21.359375 6.121094 C 21.332031 6.21875 21.296875 6.320312 21.289062 6.347656 C 21.277344 6.375 21.234375 6.507812 21.191406 6.648438 C 21.152344 6.785156 21.097656 6.960938 21.074219 7.03125 L 21.03125 7.164062 L 18.125 7.171875 L 15.214844 7.175781 L 15.230469 7.109375 C 15.238281 7.074219 15.253906 7.023438 15.261719 6.996094 C 15.28125 6.949219 15.3125 6.851562 15.429688 6.457031 C 15.460938 6.355469 15.492188 6.253906 15.503906 6.226562 C 15.515625 6.203125 15.546875 6.097656 15.578125 6 C 15.605469 5.902344 15.648438 5.761719 15.671875 5.6875 C 15.695312 5.617188 15.75 5.441406 15.792969 5.304688 C 15.832031 5.164062 15.902344 4.9375 15.949219 4.800781 C 15.992188 4.660156 16.050781 4.46875 16.082031 4.367188 C 16.109375 4.269531 16.152344 4.128906 16.175781 4.054688 C 16.199219 3.984375 16.242188 3.84375 16.273438 3.742188 C 16.300781 3.644531 16.332031 3.542969 16.34375 3.515625 C 16.355469 3.488281 16.386719 3.386719 16.417969 3.289062 C 16.53125 2.910156 16.566406 2.792969 16.585938 2.746094 C 16.59375 2.722656 16.625 2.617188 16.65625 2.519531 C 16.6875 2.421875 16.71875 2.3125 16.730469 2.28125 C 16.742188 2.246094 16.816406 2.003906 16.894531 1.742188 C 17.085938 1.125 17.007812 1.171875 17.519531 1.332031 M 17.609375 2.660156 C 17.421875 2.703125 17.355469 2.820312 17.195312 3.359375 C 17.148438 3.523438 17.085938 3.71875 17.0625 3.792969 C 16.84375 4.460938 16.816406 4.570312 16.851562 4.6875 C 16.90625 4.859375 17.019531 4.949219 17.304688 5.035156 C 17.441406 5.078125 17.664062 5.148438 17.796875 5.1875 C 17.929688 5.230469 18.09375 5.28125 18.167969 5.304688 C 18.242188 5.328125 18.382812 5.371094 18.480469 5.398438 C 18.578125 5.429688 18.679688 5.460938 18.707031 5.472656 C 18.734375 5.480469 18.804688 5.503906 18.863281 5.519531 C 18.921875 5.535156 18.992188 5.558594 19.019531 5.566406 C 19.046875 5.578125 19.175781 5.621094 19.308594 5.660156 C 19.441406 5.703125 19.648438 5.765625 19.769531 5.804688 C 20.445312 6.019531 20.644531 5.96875 20.742188 5.554688 C 20.75 5.53125 20.808594 5.332031 20.878906 5.113281 C 20.945312 4.898438 20.996094 4.707031 20.992188 4.695312 C 20.984375 4.671875 20.921875 4.855469 20.804688 5.242188 C 20.59375 5.941406 20.5 6.003906 19.964844 5.832031 C 19.839844 5.792969 19.664062 5.738281 19.570312 5.710938 C 19.480469 5.679688 19.382812 5.648438 19.355469 5.640625 C 19.328125 5.628906 19.226562 5.597656 19.128906 5.566406 C 19.027344 5.539062 18.886719 5.492188 18.816406 5.46875 C 18.742188 5.445312 18.445312 5.355469 18.15625 5.265625 C 17.867188 5.179688 17.53125 5.078125 17.410156 5.039062 C 17.292969 5.003906 17.171875 4.964844 17.140625 4.957031 C 16.863281 4.875 16.820312 4.667969 16.980469 4.15625 C 17.042969 3.960938 17.109375 3.75 17.128906 3.683594 C 17.148438 3.617188 17.183594 3.503906 17.207031 3.433594 C 17.230469 3.359375 17.261719 3.25 17.28125 3.191406 C 17.417969 2.699219 17.582031 2.605469 18.046875 2.753906 C 18.132812 2.78125 18.398438 2.863281 18.636719 2.9375 C 18.875 3.007812 19.117188 3.082031 19.175781 3.101562 C 19.234375 3.121094 19.363281 3.160156 19.464844 3.191406 C 19.5625 3.222656 19.734375 3.277344 19.847656 3.3125 C 20.050781 3.375 20.261719 3.441406 20.566406 3.535156 C 20.652344 3.558594 20.742188 3.589844 20.765625 3.601562 C 20.789062 3.613281 20.820312 3.625 20.839844 3.625 C 20.898438 3.625 21.019531 3.695312 21.082031 3.769531 C 21.195312 3.902344 21.1875 4.027344 21.042969 4.472656 C 21.019531 4.550781 21 4.625 21.007812 4.640625 C 21.011719 4.65625 21.046875 4.570312 21.082031 4.453125 C 21.117188 4.332031 21.15625 4.210938 21.167969 4.179688 C 21.273438 3.925781 21.121094 3.671875 20.808594 3.578125 C 20.75 3.558594 20.617188 3.519531 20.519531 3.484375 C 20.421875 3.453125 20.308594 3.417969 20.269531 3.40625 C 20.226562 3.398438 20.019531 3.332031 19.800781 3.265625 C 19.125 3.054688 18.953125 3 18.78125 2.949219 C 18.6875 2.921875 18.550781 2.878906 18.480469 2.855469 C 18.40625 2.832031 18.300781 2.800781 18.238281 2.785156 C 18.179688 2.769531 18.113281 2.746094 18.089844 2.734375 C 18.066406 2.722656 18.027344 2.710938 18.003906 2.710938 C 17.980469 2.710938 17.953125 2.703125 17.9375 2.691406 C 17.90625 2.660156 17.691406 2.640625 17.609375 2.660156 M 11.597656 2.8125 C 11.558594 2.847656 11.558594 3.511719 11.59375 3.578125 C 11.625 3.636719 13.75 3.652344 13.792969 3.59375 C 13.832031 3.542969 14.019531 2.90625 14.011719 2.851562 L 14.003906 2.796875 L 12.816406 2.789062 C 11.910156 2.785156 11.617188 2.789062 11.597656 2.8125 M 13.964844 2.828125 C 13.984375 2.84375 13.992188 2.871094 13.980469 2.90625 C 13.972656 2.9375 13.953125 3.007812 13.941406 3.058594 C 13.925781 3.113281 13.90625 3.175781 13.894531 3.203125 C 13.886719 3.230469 13.863281 3.300781 13.847656 3.359375 C 13.832031 3.417969 13.804688 3.496094 13.789062 3.535156 L 13.765625 3.601562 L 12.695312 3.59375 L 11.628906 3.589844 L 11.621094 3.230469 C 11.617188 3.03125 11.621094 2.855469 11.625 2.839844 C 11.640625 2.800781 13.90625 2.792969 13.964844 2.828125 M 17.96875 3.566406 C 17.960938 3.578125 17.953125 3.605469 17.953125 3.632812 C 17.953125 3.683594 17.953125 3.683594 17.980469 3.636719 C 17.996094 3.609375 18.007812 3.585938 18.011719 3.582031 C 18.015625 3.578125 18.042969 3.585938 18.074219 3.597656 C 18.105469 3.609375 18.238281 3.652344 18.371094 3.691406 C 18.503906 3.734375 18.808594 3.828125 19.050781 3.902344 C 19.292969 3.976562 19.496094 4.03125 19.503906 4.027344 C 19.511719 4.015625 19.269531 3.933594 19.03125 3.863281 C 18.972656 3.847656 18.902344 3.828125 18.875 3.816406 C 18.847656 3.804688 18.78125 3.785156 18.71875 3.769531 C 18.660156 3.75 18.589844 3.730469 18.5625 3.71875 C 18.539062 3.710938 18.433594 3.675781 18.335938 3.648438 C 18.238281 3.617188 18.132812 3.585938 18.101562 3.574219 C 18.035156 3.546875 17.988281 3.546875 17.96875 3.566406 M 17.917969 3.722656 C 17.851562 3.953125 17.800781 4.125 17.78125 4.15625 C 17.75 4.21875 17.753906 4.34375 17.789062 4.355469 C 17.804688 4.359375 17.867188 4.375 17.929688 4.390625 C 17.988281 4.40625 18.058594 4.429688 18.085938 4.441406 C 18.109375 4.449219 18.179688 4.472656 18.238281 4.488281 C 18.300781 4.503906 18.371094 4.527344 18.394531 4.535156 C 18.421875 4.546875 18.523438 4.578125 18.625 4.609375 C 18.722656 4.636719 18.863281 4.683594 18.9375 4.707031 C 19.007812 4.730469 19.121094 4.765625 19.1875 4.785156 C 19.253906 4.804688 19.46875 4.871094 19.664062 4.929688 C 20.101562 5.066406 20.042969 5.097656 20.183594 4.632812 C 20.226562 4.492188 20.269531 4.355469 20.28125 4.328125 C 20.296875 4.285156 20.292969 4.269531 20.261719 4.25 C 20.1875 4.210938 19.871094 4.121094 19.859375 4.132812 C 19.851562 4.140625 19.9375 4.175781 20.050781 4.210938 C 20.164062 4.246094 20.257812 4.285156 20.257812 4.292969 C 20.257812 4.304688 20.234375 4.375 20.210938 4.453125 C 20.183594 4.53125 20.140625 4.675781 20.109375 4.777344 C 20.035156 5.027344 20.039062 5.023438 19.800781 4.945312 C 19.6875 4.910156 19.484375 4.84375 19.34375 4.800781 C 19.207031 4.757812 19.03125 4.703125 18.960938 4.679688 C 18.886719 4.65625 18.746094 4.613281 18.648438 4.582031 C 18.550781 4.554688 18.375 4.5 18.265625 4.464844 C 18.152344 4.425781 17.996094 4.378906 17.921875 4.355469 C 17.757812 4.308594 17.761719 4.335938 17.871094 3.992188 C 17.917969 3.839844 17.949219 3.710938 17.941406 3.703125 C 17.933594 3.695312 17.925781 3.703125 17.917969 3.722656 M 19.535156 4.042969 C 19.535156 4.058594 19.800781 4.136719 19.8125 4.121094 C 19.820312 4.113281 19.769531 4.089844 19.695312 4.070312 C 19.558594 4.03125 19.535156 4.027344 19.535156 4.042969 "/>
<path style=" stroke:none;fill-rule:evenodd;fill:rgb(42.352941%,42.352941%,42.352941%);fill-opacity:1;" d="M 5.675781 8.015625 C 5.667969 8.027344 5.671875 8.082031 5.683594 8.140625 C 5.699219 8.199219 5.71875 8.324219 5.734375 8.425781 C 5.773438 8.671875 5.804688 8.890625 5.832031 9.046875 C 5.84375 9.121094 5.863281 9.261719 5.878906 9.359375 C 5.894531 9.460938 5.917969 9.597656 5.929688 9.671875 C 5.941406 9.746094 5.960938 9.886719 5.976562 9.984375 C 5.992188 10.082031 6.011719 10.226562 6.027344 10.300781 C 6.039062 10.378906 6.058594 10.503906 6.070312 10.578125 C 6.082031 10.652344 6.105469 10.796875 6.121094 10.894531 C 6.195312 11.402344 6.234375 11.609375 6.238281 11.503906 C 6.238281 11.460938 6.230469 11.375 6.21875 11.3125 C 6.207031 11.246094 6.183594 11.121094 6.171875 11.027344 C 6.125 10.726562 6 9.929688 5.976562 9.757812 C 5.960938 9.664062 5.941406 9.523438 5.925781 9.445312 C 5.902344 9.292969 5.863281 9.050781 5.832031 8.832031 C 5.820312 8.757812 5.800781 8.625 5.785156 8.53125 C 5.742188 8.261719 5.71875 8.054688 5.730469 8.035156 C 5.742188 8.011719 22.28125 8.011719 22.363281 8.03125 L 22.414062 8.046875 L 22.414062 12.070312 C 22.414062 15.40625 22.410156 16.125 22.382812 16.296875 C 22.308594 16.746094 22.136719 17.082031 21.820312 17.40625 L 21.660156 17.566406 L 7.1875 17.566406 L 7.15625 17.359375 C 7.113281 17.074219 7.015625 16.414062 6.984375 16.234375 C 6.972656 16.15625 6.949219 16.015625 6.9375 15.925781 C 6.921875 15.832031 6.902344 15.695312 6.886719 15.625 C 6.875 15.550781 6.855469 15.410156 6.839844 15.3125 C 6.824219 15.214844 6.804688 15.078125 6.792969 15.011719 C 6.773438 14.90625 6.757812 14.8125 6.707031 14.472656 C 6.703125 14.425781 6.683594 14.316406 6.667969 14.230469 C 6.65625 14.144531 6.632812 14.011719 6.621094 13.933594 C 6.609375 13.851562 6.589844 13.71875 6.578125 13.632812 C 6.5625 13.546875 6.539062 13.40625 6.527344 13.320312 C 6.515625 13.234375 6.492188 13.097656 6.480469 13.019531 C 6.46875 12.941406 6.449219 12.800781 6.4375 12.714844 C 6.414062 12.558594 6.382812 12.46875 6.382812 12.5625 C 6.382812 12.605469 6.484375 13.296875 6.527344 13.535156 C 6.554688 13.6875 6.585938 13.898438 6.625 14.160156 C 6.640625 14.257812 6.660156 14.402344 6.671875 14.476562 C 6.6875 14.554688 6.707031 14.679688 6.71875 14.753906 C 6.730469 14.828125 6.753906 14.972656 6.769531 15.070312 C 6.78125 15.171875 6.804688 15.3125 6.816406 15.382812 C 6.828125 15.457031 6.851562 15.597656 6.863281 15.695312 C 6.878906 15.796875 6.902344 15.9375 6.914062 16.015625 C 6.925781 16.089844 6.945312 16.214844 6.957031 16.289062 C 6.972656 16.367188 6.992188 16.507812 7.007812 16.609375 C 7.050781 16.894531 7.082031 17.089844 7.105469 17.214844 C 7.117188 17.28125 7.128906 17.363281 7.128906 17.398438 C 7.128906 17.433594 7.140625 17.5 7.15625 17.539062 L 7.179688 17.617188 L 14.492188 17.609375 L 21.804688 17.605469 L 21.988281 17.550781 C 22.527344 17.398438 22.917969 17.039062 23.113281 16.523438 C 23.207031 16.269531 23.207031 16.257812 23.207031 12.058594 L 23.207031 8.023438 L 22.613281 8.007812 C 21.652344 7.980469 5.691406 7.988281 5.675781 8.015625 M 10.675781 8.800781 C 10.601562 8.8125 10.464844 8.933594 10.421875 9.023438 C 10.402344 9.066406 10.390625 9.28125 10.386719 9.730469 L 10.378906 10.378906 L 8.914062 10.390625 C 7.289062 10.40625 7.371094 10.398438 7.253906 10.566406 C 7.085938 10.820312 7.257812 11.214844 7.535156 11.207031 L 7.621094 11.203125 L 7.527344 11.179688 C 7.167969 11.097656 7.101562 10.605469 7.429688 10.449219 C 7.457031 10.4375 8.089844 10.421875 8.941406 10.414062 L 10.402344 10.402344 L 10.410156 9.757812 C 10.417969 9.054688 10.425781 9.003906 10.550781 8.90625 C 10.78125 8.726562 11.097656 8.832031 11.171875 9.109375 C 11.203125 9.214844 11.203125 9.21875 11.207031 9.148438 C 11.210938 8.914062 10.960938 8.75 10.675781 8.800781 M 14.667969 8.804688 C 14.414062 8.878906 14.375 8.996094 14.375 9.757812 L 14.375 10.390625 L 12.804688 10.390625 C 11.574219 10.390625 11.234375 10.386719 11.222656 10.363281 C 11.214844 10.34375 11.210938 10.347656 11.210938 10.375 C 11.207031 10.414062 11.292969 10.414062 12.796875 10.410156 L 14.386719 10.402344 L 14.398438 9.757812 C 14.414062 9.050781 14.417969 9.027344 14.550781 8.910156 C 14.675781 8.800781 14.820312 8.785156 14.96875 8.859375 C 15.171875 8.960938 15.179688 8.980469 15.191406 9.742188 L 15.203125 10.402344 L 18.394531 10.402344 L 18.40625 9.742188 C 18.421875 8.988281 18.425781 8.96875 18.625 8.863281 C 18.808594 8.761719 18.980469 8.808594 19.121094 8.992188 L 19.1875 9.082031 L 19.210938 10.402344 L 20.472656 10.414062 C 21.636719 10.425781 21.738281 10.429688 21.804688 10.472656 C 22.105469 10.65625 22.019531 11.101562 21.667969 11.183594 L 21.589844 11.203125 L 21.660156 11.207031 C 21.9375 11.214844 22.125 10.800781 21.949219 10.574219 C 21.8125 10.394531 21.898438 10.40625 20.496094 10.390625 L 19.234375 10.378906 L 19.222656 9.730469 C 19.210938 9.011719 19.207031 8.992188 19.039062 8.863281 C 18.910156 8.761719 18.503906 8.792969 18.503906 8.90625 C 18.503906 8.914062 18.480469 8.945312 18.449219 8.976562 C 18.398438 9.035156 18.394531 9.050781 18.390625 9.660156 C 18.386719 10.003906 18.378906 10.308594 18.371094 10.339844 L 18.359375 10.390625 L 15.238281 10.390625 L 15.238281 9.832031 C 15.238281 9.507812 15.226562 9.214844 15.210938 9.136719 C 15.160156 8.875 14.925781 8.730469 14.667969 8.804688 M 10.363281 11.222656 C 10.386719 11.234375 10.390625 11.574219 10.390625 12.804688 L 10.390625 14.375 L 9.347656 14.375 C 8.339844 14.375 8.300781 14.378906 8.21875 14.425781 C 7.902344 14.601562 7.90625 15.011719 8.21875 15.179688 C 8.3125 15.226562 8.355469 15.226562 9.355469 15.234375 L 10.390625 15.242188 L 10.390625 15.890625 C 10.390625 16.597656 10.390625 16.597656 10.542969 16.734375 C 10.765625 16.933594 11.214844 16.75 11.207031 16.464844 L 11.203125 16.378906 L 11.179688 16.472656 C 11.117188 16.742188 10.804688 16.871094 10.582031 16.722656 C 10.433594 16.621094 10.429688 16.59375 10.414062 15.863281 L 10.402344 15.203125 L 9.347656 15.191406 C 8.335938 15.179688 8.289062 15.179688 8.207031 15.128906 C 8.015625 15.019531 7.960938 14.796875 8.074219 14.601562 C 8.1875 14.410156 8.175781 14.414062 9.359375 14.398438 L 10.402344 14.386719 L 10.410156 12.796875 C 10.414062 11.292969 10.414062 11.207031 10.375 11.210938 C 10.347656 11.210938 10.34375 11.214844 10.363281 11.222656 M 14.375 12.792969 L 14.375 14.375 L 12.785156 14.382812 L 11.195312 14.386719 L 12.796875 14.394531 L 14.398438 14.398438 L 14.398438 12.804688 C 14.398438 11.925781 14.394531 11.207031 14.386719 11.207031 C 14.382812 11.207031 14.375 11.921875 14.375 12.792969 M 15.191406 12.804688 L 15.191406 14.398438 L 18.40625 14.398438 L 18.40625 12.804688 C 18.40625 11.925781 18.398438 11.207031 18.390625 11.207031 C 18.378906 11.207031 18.375 11.921875 18.378906 12.792969 L 18.382812 14.375 L 15.238281 14.375 L 15.246094 12.792969 C 15.25 11.539062 15.246094 11.207031 15.222656 11.207031 C 15.199219 11.207031 15.191406 11.542969 15.191406 12.804688 M 19.199219 12.804688 L 19.199219 14.398438 L 20.441406 14.40625 C 21.605469 14.410156 21.691406 14.414062 21.777344 14.457031 C 22.054688 14.597656 22.050781 15.023438 21.769531 15.152344 C 21.726562 15.171875 21.320312 15.183594 20.460938 15.191406 L 19.210938 15.203125 L 19.199219 15.851562 C 19.183594 16.671875 19.140625 16.777344 18.804688 16.777344 C 18.464844 16.777344 18.421875 16.679688 18.40625 15.863281 L 18.394531 15.203125 L 15.203125 15.203125 L 15.191406 15.863281 C 15.179688 16.558594 15.175781 16.578125 15.0625 16.695312 C 14.957031 16.800781 14.699219 16.808594 14.574219 16.714844 C 14.414062 16.589844 14.398438 16.515625 14.398438 15.8125 L 14.398438 15.191406 L 12.804688 15.191406 C 11.542969 15.191406 11.207031 15.199219 11.207031 15.222656 C 11.207031 15.246094 11.539062 15.25 12.792969 15.246094 L 14.375 15.238281 L 14.375 15.867188 C 14.375 16.679688 14.433594 16.804688 14.796875 16.808594 C 15.15625 16.8125 15.226562 16.664062 15.234375 15.859375 L 15.242188 15.238281 L 16.808594 15.246094 L 18.371094 15.253906 L 18.382812 15.898438 C 18.398438 16.707031 18.449219 16.816406 18.808594 16.808594 C 19.167969 16.804688 19.222656 16.675781 19.222656 15.863281 L 19.222656 15.238281 L 20.394531 15.238281 C 21.628906 15.238281 21.722656 15.230469 21.859375 15.128906 C 22.097656 14.949219 22.0625 14.574219 21.792969 14.429688 C 21.691406 14.375 21.691406 14.375 20.457031 14.375 L 19.222656 14.375 L 19.230469 12.792969 C 19.234375 11.921875 19.226562 11.207031 19.21875 11.207031 C 19.207031 11.207031 19.199219 11.925781 19.199219 12.804688 M 6.238281 11.644531 C 6.238281 11.703125 6.359375 12.464844 6.371094 12.492188 C 6.386719 12.523438 6.367188 12.292969 6.339844 12.109375 C 6.324219 12.027344 6.304688 11.890625 6.292969 11.800781 C 6.269531 11.648438 6.238281 11.558594 6.238281 11.644531 M 10.800781 20.863281 C 9.984375 21.164062 9.730469 22.195312 10.316406 22.816406 C 11.125 23.671875 12.511719 23.015625 12.382812 21.839844 C 12.304688 21.125 11.476562 20.609375 10.800781 20.863281 M 19.644531 20.847656 C 18.761719 21.164062 18.507812 22.199219 19.152344 22.847656 C 20.117188 23.820312 21.660156 22.671875 21.054688 21.433594 C 20.824219 20.964844 20.125 20.675781 19.644531 20.847656 M 11.175781 20.910156 C 11.714844 21.476562 11.746094 22.367188 11.25 23.011719 C 11.109375 23.195312 10.960938 23.199219 10.648438 23.035156 C 9.820312 22.59375 9.835938 21.34375 10.675781 20.957031 C 11.007812 20.808594 11.074219 20.800781 11.175781 20.910156 M 20.035156 20.980469 C 20.546875 21.601562 20.515625 22.578125 19.96875 23.097656 C 19.699219 23.359375 18.941406 22.773438 18.851562 22.234375 C 18.84375 22.183594 18.828125 22.109375 18.824219 22.070312 C 18.742188 21.648438 19.289062 20.882812 19.671875 20.878906 C 19.695312 20.878906 19.730469 20.867188 19.753906 20.855469 C 19.839844 20.796875 19.910156 20.828125 20.035156 20.980469 "/>
</g>
</svg>
