<?xml version="1.0" encoding="UTF-8"?>
<svg xmlns="http://www.w3.org/2000/svg" xmlns:xlink="http://www.w3.org/1999/xlink" width="24px" height="24px" viewBox="0 0 24 24" version="1.1">
<g id="surface1">
<path style=" stroke:none;fill-rule:nonzero;fill:rgb(0%,0%,0%);fill-opacity:1;" d="M 8.484375 0.0429688 C 8.160156 0.140625 7.875 0.382812 7.707031 0.703125 C 7.621094 0.859375 7.617188 1.050781 7.601562 4.039062 L 7.589844 7.21875 L 6.582031 7.21875 C 5.816406 7.21875 5.570312 7.203125 5.554688 7.15625 C 5.546875 7.128906 5.394531 6.214844 5.226562 5.132812 C 4.953125 3.378906 4.90625 3.132812 4.78125 2.875 C 4.621094 2.554688 4.375 2.3125 4.035156 2.148438 C 3.824219 2.042969 3.777344 2.039062 2.023438 2.023438 L 0.234375 2.011719 L 0.117188 2.128906 C -0.03125 2.277344 -0.0390625 2.484375 0.113281 2.65625 L 0.226562 2.789062 L 1.929688 2.8125 C 3.875 2.839844 3.871094 2.835938 4.0625 3.234375 C 4.144531 3.398438 4.414062 5.058594 5.34375 11.0625 C 6.25 16.878906 6.554688 18.75 6.640625 18.984375 C 7.03125 20.035156 7.972656 20.714844 9.148438 20.796875 C 9.378906 20.8125 9.558594 20.839844 9.546875 20.855469 C 9.390625 21.144531 9.261719 21.492188 9.21875 21.746094 C 9.101562 22.519531 9.558594 23.40625 10.265625 23.765625 C 11.363281 24.324219 12.671875 23.808594 13.078125 22.65625 C 13.269531 22.105469 13.191406 21.375 12.890625 20.953125 L 12.792969 20.8125 L 15.585938 20.8125 C 17.125 20.8125 18.375 20.828125 18.367188 20.84375 C 18.355469 20.867188 18.277344 21.023438 18.195312 21.195312 C 17.550781 22.519531 18.664062 24.113281 20.152344 23.984375 C 20.976562 23.914062 21.660156 23.367188 21.910156 22.570312 C 21.976562 22.375 21.988281 22.199219 21.976562 21.890625 C 21.960938 21.535156 21.933594 21.429688 21.792969 21.144531 L 21.628906 20.816406 L 22.703125 20.804688 L 23.773438 20.789062 L 23.886719 20.65625 C 24.03125 20.484375 24.03125 20.277344 23.882812 20.132812 L 23.769531 20.015625 L 16.46875 20.015625 C 8.515625 20.015625 8.792969 20.023438 8.296875 19.753906 C 7.882812 19.527344 7.445312 18.976562 7.339844 18.554688 L 7.3125 18.425781 L 14.65625 18.414062 L 22.007812 18.398438 L 22.316406 18.296875 C 22.929688 18.085938 23.445312 17.648438 23.722656 17.101562 C 24.003906 16.546875 24 16.632812 24 12.046875 C 24 8.058594 23.996094 7.84375 23.910156 7.660156 C 23.863281 7.550781 23.75 7.414062 23.667969 7.355469 C 23.515625 7.246094 23.464844 7.242188 22.703125 7.226562 C 22.257812 7.21875 21.890625 7.203125 21.890625 7.191406 C 21.890625 7.179688 22.1875 6.21875 22.546875 5.054688 C 22.90625 3.886719 23.203125 2.878906 23.203125 2.8125 C 23.203125 2.628906 23.011719 2.289062 22.847656 2.179688 C 22.765625 2.128906 21.1875 1.613281 19.332031 1.039062 L 15.960938 0 L 12.28125 0.00390625 C 10.257812 0.00390625 8.550781 0.0234375 8.484375 0.0429688 Z M 14.183594 0.839844 L 14.609375 0.867188 L 14.441406 1.414062 L 14.273438 1.96875 L 12.746094 1.96875 C 11.746094 1.96875 11.164062 1.988281 11.066406 2.019531 C 10.808594 2.109375 10.78125 2.230469 10.78125 3.234375 L 10.78125 4.132812 L 11.054688 4.40625 L 12.277344 4.40625 C 12.953125 4.40625 13.5 4.421875 13.5 4.4375 C 13.5 4.460938 13.3125 5.078125 13.082031 5.8125 L 12.671875 7.148438 L 11.351562 7.164062 L 10.03125 7.171875 L 10.03125 0.796875 L 11.898438 0.800781 C 12.917969 0.804688 13.949219 0.820312 14.183594 0.839844 Z M 19.515625 1.949219 C 20.808594 2.351562 21.980469 2.714844 22.117188 2.757812 C 22.246094 2.792969 22.359375 2.839844 22.359375 2.859375 C 22.359375 2.882812 22.0625 3.847656 21.703125 5.015625 C 21.34375 6.183594 21.046875 7.144531 21.046875 7.152344 C 21.046875 7.164062 19.738281 7.171875 18.140625 7.171875 C 16.222656 7.171875 15.234375 7.15625 15.234375 7.125 C 15.234375 7.074219 17.015625 1.3125 17.046875 1.25 C 17.058594 1.234375 17.089844 1.21875 17.117188 1.21875 C 17.140625 1.21875 18.226562 1.546875 19.515625 1.949219 Z M 13.996094 2.890625 C 13.984375 2.9375 13.925781 3.117188 13.875 3.289062 L 13.777344 3.609375 L 11.625 3.609375 L 11.625 2.8125 L 12.824219 2.8125 C 13.945312 2.8125 14.019531 2.816406 13.996094 2.890625 Z M 22.40625 12.125 C 22.40625 15.464844 22.390625 16.289062 22.339844 16.480469 C 22.25 16.8125 22.058594 17.15625 21.828125 17.386719 L 21.640625 17.578125 L 14.40625 17.578125 C 10.429688 17.578125 7.171875 17.570312 7.171875 17.554688 C 7.171875 17.539062 6.84375 15.425781 6.445312 12.859375 C 6.046875 10.285156 5.71875 8.148438 5.71875 8.101562 C 5.71875 8.019531 6.054688 8.015625 14.0625 8.015625 L 22.40625 8.015625 Z M 11.25 21 C 11.476562 21.285156 11.59375 21.625 11.585938 22.007812 C 11.585938 22.382812 11.503906 22.648438 11.292969 22.945312 C 11.101562 23.207031 10.953125 23.222656 10.59375 23 C 10.226562 22.785156 10.058594 22.5 10.039062 22.058594 C 10.027344 21.769531 10.039062 21.695312 10.15625 21.472656 C 10.304688 21.1875 10.53125 20.980469 10.808594 20.882812 C 11.070312 20.789062 11.085938 20.792969 11.25 21 Z M 20.023438 20.960938 C 20.269531 21.285156 20.359375 21.523438 20.382812 21.914062 C 20.40625 22.355469 20.300781 22.6875 20.058594 22.988281 C 19.917969 23.152344 19.894531 23.164062 19.726562 23.140625 C 19.152344 23.066406 18.707031 22.375 18.84375 21.773438 C 18.90625 21.492188 18.960938 21.390625 19.144531 21.195312 C 19.292969 21.039062 19.476562 20.921875 19.6875 20.855469 C 19.878906 20.796875 19.90625 20.808594 20.023438 20.960938 Z M 20.023438 20.960938 "/>
<path style=" stroke:none;fill-rule:nonzero;fill:rgb(0%,0%,0%);fill-opacity:1;" d="M 17.550781 2.691406 C 17.382812 2.765625 17.363281 2.8125 17.035156 3.882812 C 16.835938 4.523438 16.824219 4.609375 16.875 4.734375 C 16.90625 4.8125 16.972656 4.898438 17.019531 4.921875 C 17.148438 4.992188 20.257812 5.953125 20.351562 5.953125 C 20.394531 5.953125 20.488281 5.90625 20.554688 5.84375 C 20.648438 5.765625 20.734375 5.558594 20.929688 4.921875 C 21.070312 4.472656 21.1875 4.039062 21.1875 3.96875 C 21.1875 3.710938 21.066406 3.65625 19.40625 3.148438 C 18.542969 2.882812 17.804688 2.65625 17.765625 2.648438 C 17.726562 2.640625 17.628906 2.65625 17.550781 2.691406 Z M 19.460938 4.023438 C 19.871094 4.148438 20.210938 4.261719 20.226562 4.273438 C 20.257812 4.308594 20.0625 5.015625 20.019531 5.015625 C 19.964844 5.011719 17.8125 4.328125 17.789062 4.308594 C 17.773438 4.289062 17.882812 3.875 17.976562 3.625 C 17.992188 3.585938 18.097656 3.601562 18.359375 3.679688 C 18.5625 3.746094 19.058594 3.894531 19.460938 4.023438 Z M 19.460938 4.023438 "/>
<path style=" stroke:none;fill-rule:nonzero;fill:rgb(0%,0%,0%);fill-opacity:1;" d="M 10.707031 8.804688 C 10.648438 8.8125 10.5625 8.863281 10.507812 8.921875 C 10.421875 9.019531 10.40625 9.089844 10.398438 9.703125 L 10.382812 10.382812 L 8.902344 10.398438 L 7.421875 10.40625 L 7.3125 10.523438 C 7.152344 10.695312 7.15625 10.945312 7.332031 11.089844 L 7.457031 11.203125 L 10.40625 11.203125 L 10.40625 14.390625 L 9.347656 14.390625 C 8.714844 14.390625 8.253906 14.410156 8.199219 14.4375 C 8.070312 14.507812 7.960938 14.742188 7.996094 14.878906 C 8.011719 14.9375 8.078125 15.042969 8.140625 15.101562 C 8.253906 15.210938 8.277344 15.210938 9.332031 15.226562 L 10.40625 15.238281 L 10.40625 15.910156 C 10.40625 16.566406 10.410156 16.578125 10.523438 16.6875 C 10.695312 16.847656 10.945312 16.84375 11.089844 16.667969 C 11.199219 16.546875 11.203125 16.507812 11.203125 15.886719 L 11.203125 15.234375 L 14.390625 15.234375 L 14.390625 15.886719 C 14.390625 16.507812 14.394531 16.546875 14.503906 16.667969 C 14.652344 16.847656 14.90625 16.851562 15.085938 16.671875 C 15.207031 16.546875 15.210938 16.53125 15.226562 15.890625 L 15.242188 15.234375 L 18.375 15.234375 L 18.375 15.84375 C 18.375 16.539062 18.417969 16.683594 18.65625 16.78125 C 18.78125 16.832031 18.828125 16.832031 18.964844 16.765625 C 19.054688 16.726562 19.148438 16.636719 19.171875 16.566406 C 19.199219 16.5 19.21875 16.175781 19.21875 15.84375 L 19.21875 15.238281 L 20.480469 15.226562 C 21.730469 15.210938 21.746094 15.210938 21.859375 15.101562 C 21.921875 15.042969 21.988281 14.9375 22.003906 14.878906 C 22.039062 14.742188 21.929688 14.507812 21.800781 14.4375 C 21.746094 14.410156 21.230469 14.390625 20.464844 14.390625 L 19.21875 14.390625 L 19.21875 11.203125 L 20.480469 11.203125 C 21.746094 11.203125 21.746094 11.203125 21.871094 11.089844 C 22.046875 10.945312 22.050781 10.695312 21.890625 10.523438 L 21.78125 10.40625 L 19.21875 10.40625 L 19.21875 9.773438 C 19.21875 9.054688 19.171875 8.902344 18.9375 8.820312 C 18.746094 8.75 18.535156 8.832031 18.445312 9.003906 C 18.394531 9.097656 18.375 9.304688 18.375 9.773438 L 18.375 10.40625 L 15.242188 10.40625 L 15.226562 9.726562 C 15.210938 9.074219 15.207031 9.042969 15.09375 8.933594 C 14.910156 8.757812 14.675781 8.757812 14.507812 8.929688 C 14.394531 9.039062 14.390625 9.0625 14.390625 9.726562 L 14.390625 10.40625 L 11.203125 10.40625 L 11.203125 9.734375 C 11.203125 9.21875 11.1875 9.046875 11.132812 8.96875 C 11.054688 8.855469 10.851562 8.78125 10.707031 8.804688 Z M 14.390625 12.796875 L 14.390625 14.390625 L 11.203125 14.390625 L 11.203125 11.203125 L 14.390625 11.203125 Z M 18.375 12.796875 L 18.375 14.390625 L 15.234375 14.390625 L 15.234375 11.203125 L 18.375 11.203125 Z M 18.375 12.796875 "/>
</g>
</svg>
