<?xml version="1.0" encoding="UTF-8"?>
<svg xmlns="http://www.w3.org/2000/svg" xmlns:xlink="http://www.w3.org/1999/xlink" width="200px" height="50px" viewBox="0 0 200 50" version="1.1">
<g id="surface1">
<path style=" stroke:none;fill-rule:nonzero;fill:rgb(90.980392%,8.235294%,14.117647%);fill-opacity:1;" d="M 9.078125 19.566406 L 0.148438 50 L 84.761719 50 L 93.675781 19.566406 Z M 9.078125 19.566406 "/>
<path style=" stroke:none;fill-rule:nonzero;fill:rgb(100%,100%,100%);fill-opacity:1;" d="M 20.886719 22.972656 L 19.121094 29 L 11.398438 29 L 10.160156 33.070312 L 16.789062 33.070312 L 15.09375 38.898438 L 8.511719 38.898438 L 6.0625 47.316406 L 0.90625 47.316406 L 8.035156 22.96875 Z M 20.886719 22.972656 "/>
<path style=" stroke:none;fill-rule:nonzero;fill:rgb(100%,100%,100%);fill-opacity:1;" d="M 35.628906 22.972656 L 29.832031 42.878906 C 29.726562 43.242188 29.601562 43.59375 29.464844 43.9375 C 29.332031 44.261719 29.183594 44.570312 29.023438 44.867188 C 28.777344 45.316406 28.488281 45.71875 28.164062 46.058594 C 27.789062 46.441406 27.375 46.742188 26.9375 46.953125 C 26.371094 47.222656 25.785156 47.40625 25.1875 47.5 C 24.378906 47.628906 23.566406 47.691406 22.753906 47.679688 C 21.875 47.707031 21 47.574219 20.144531 47.285156 C 19.550781 47.085938 18.996094 46.71875 18.511719 46.207031 C 18.136719 45.792969 17.855469 45.242188 17.695312 44.617188 C 17.542969 43.980469 17.492188 43.308594 17.542969 42.644531 C 17.542969 42.035156 17.621094 41.425781 17.777344 40.855469 L 23 22.972656 L 28.152344 22.972656 L 23.3125 40.199219 C 23.183594 40.515625 23.175781 40.894531 23.289062 41.222656 C 23.398438 41.511719 23.625 41.679688 23.859375 41.652344 C 24.167969 41.640625 24.464844 41.492188 24.707031 41.222656 C 24.972656 40.960938 25.183594 40.609375 25.316406 40.199219 L 30.375 22.972656 Z M 35.628906 22.972656 "/>
<path style=" stroke:none;fill-rule:nonzero;fill:rgb(100%,100%,100%);fill-opacity:1;" d="M 48.761719 28.601562 L 44.492188 28.601562 L 39.007812 47.316406 L 33.90625 47.316406 L 39.386719 28.601562 L 35.242188 28.601562 L 36.886719 22.972656 L 50.40625 22.972656 Z M 48.761719 28.601562 "/>
<path style=" stroke:none;fill-rule:nonzero;fill:rgb(100%,100%,100%);fill-opacity:1;" d="M 57.34375 22.582031 C 58.347656 22.546875 59.347656 22.765625 60.300781 23.222656 C 61.046875 23.570312 61.707031 24.199219 62.21875 25.03125 C 62.679688 25.84375 62.949219 26.835938 62.980469 27.867188 C 63.015625 29.144531 62.839844 30.417969 62.46875 31.585938 L 58.222656 31.585938 C 57.960938 31.601562 57.699219 31.511719 57.472656 31.324219 C 57.273438 31.148438 57.214844 30.828125 57.296875 30.363281 C 57.308594 30.285156 57.324219 30.207031 57.34375 30.128906 C 57.359375 30.066406 57.375 29.988281 57.390625 29.898438 C 57.4375 29.8125 57.464844 29.707031 57.464844 29.601562 C 57.550781 29.210938 57.582031 28.800781 57.558594 28.390625 C 57.527344 28.070312 57.351562 27.914062 57.03125 27.914062 C 56.679688 27.890625 56.335938 28.070312 56.078125 28.410156 C 55.773438 28.894531 55.539062 29.457031 55.386719 30.066406 C 55.257812 30.515625 55.332031 31.023438 55.578125 31.363281 C 55.890625 31.832031 56.230469 32.261719 56.597656 32.640625 C 57.027344 33.09375 57.484375 33.589844 57.972656 34.132812 C 58.457031 34.675781 58.875 35.328125 59.210938 36.058594 C 59.5625 36.835938 59.777344 37.714844 59.84375 38.628906 C 59.921875 39.601562 59.769531 40.738281 59.390625 42.046875 C 59.128906 43 58.777344 43.898438 58.339844 44.71875 C 57.949219 45.425781 57.457031 46.019531 56.898438 46.457031 C 56.285156 46.925781 55.621094 47.246094 54.929688 47.40625 C 54.0625 47.605469 53.1875 47.703125 52.308594 47.6875 C 51.304688 47.71875 50.304688 47.507812 49.351562 47.058594 C 48.605469 46.714844 47.9375 46.089844 47.433594 45.253906 C 46.972656 44.441406 46.707031 43.449219 46.667969 42.417969 C 46.636719 41.128906 46.8125 39.84375 47.179688 38.660156 L 51.402344 38.660156 C 51.703125 38.632812 52.003906 38.761719 52.238281 39.023438 C 52.445312 39.28125 52.445312 39.726562 52.238281 40.367188 C 52.210938 40.4375 52.191406 40.515625 52.179688 40.597656 C 52.171875 40.652344 52.167969 40.707031 52.167969 40.761719 C 52.089844 41.128906 52.070312 41.515625 52.109375 41.898438 C 52.148438 42.207031 52.3125 42.359375 52.621094 42.359375 C 52.976562 42.382812 53.320312 42.203125 53.574219 41.863281 C 53.878906 41.378906 54.113281 40.816406 54.265625 40.207031 C 54.394531 39.765625 54.320312 39.265625 54.078125 38.929688 C 53.769531 38.453125 53.425781 38.019531 53.054688 37.636719 C 52.628906 37.1875 52.171875 36.6875 51.6875 36.132812 C 51.203125 35.585938 50.785156 34.9375 50.445312 34.210938 C 50.09375 33.441406 49.878906 32.566406 49.8125 31.660156 C 49.734375 30.675781 49.886719 29.53125 50.265625 28.230469 C 50.527344 27.277344 50.878906 26.378906 51.316406 25.5625 C 51.707031 24.855469 52.199219 24.261719 52.757812 23.824219 C 53.371094 23.359375 54.035156 23.039062 54.726562 22.878906 C 55.589844 22.675781 56.464844 22.574219 57.34375 22.582031 Z M 57.34375 22.582031 "/>
<path style=" stroke:none;fill-rule:nonzero;fill:rgb(100%,100%,100%);fill-opacity:1;" d="M 72.976562 22.582031 C 73.855469 22.550781 74.734375 22.683594 75.585938 22.976562 C 76.179688 23.175781 76.738281 23.546875 77.21875 24.070312 C 77.59375 24.496094 77.878906 25.058594 78.035156 25.691406 C 78.1875 26.320312 78.242188 26.988281 78.191406 27.648438 C 78.191406 28.257812 78.109375 28.863281 77.953125 29.4375 L 72.730469 47.324219 L 67.597656 47.324219 L 69.144531 41.792969 L 66.976562 41.792969 L 65.378906 47.324219 L 60.117188 47.324219 L 65.902344 27.398438 C 66.09375 26.679688 66.371094 26.011719 66.71875 25.414062 C 66.957031 24.953125 67.242188 24.539062 67.566406 24.191406 C 67.9375 23.804688 68.351562 23.503906 68.789062 23.296875 C 69.363281 23.027344 69.953125 22.84375 70.554688 22.75 C 71.359375 22.625 72.167969 22.566406 72.976562 22.582031 Z M 72.425781 30.066406 C 72.550781 29.75 72.5625 29.367188 72.453125 29.039062 C 72.339844 28.75 72.113281 28.582031 71.878906 28.609375 C 71.570312 28.621094 71.273438 28.769531 71.03125 29.039062 C 70.765625 29.300781 70.554688 29.652344 70.421875 30.066406 L 68.953125 35.054688 L 71.027344 35.054688 Z M 72.425781 30.066406 "/>
<path style=" stroke:none;fill-rule:nonzero;fill:rgb(100%,100%,100%);fill-opacity:1;" d="M 87.261719 41.6875 L 85.628906 47.316406 L 75.28125 47.316406 L 82.410156 22.972656 L 87.511719 22.972656 L 82.054688 41.683594 Z M 87.261719 41.6875 "/>
<path style=" stroke:none;fill-rule:nonzero;fill:rgb(0%,0%,0%);fill-opacity:1;" d="M 113.328125 22.972656 L 106.195312 47.316406 L 101.09375 47.316406 L 104.621094 35.257812 L 98.925781 43.046875 C 98.761719 43.316406 98.5 43.425781 98.257812 43.328125 C 98.039062 43.261719 97.871094 43.019531 97.828125 42.714844 L 96.539062 35.261719 L 93.011719 47.320312 L 87.886719 47.320312 L 95.019531 22.972656 L 97.929688 22.972656 C 98.296875 22.949219 98.65625 23.125 98.929688 23.46875 C 99.191406 23.816406 99.375 24.265625 99.453125 24.761719 L 101.027344 32.476562 L 107.296875 24.195312 C 107.558594 23.871094 107.847656 23.59375 108.15625 23.367188 C 108.460938 23.121094 108.804688 22.984375 109.15625 22.972656 Z M 113.328125 22.972656 "/>
<path style=" stroke:none;fill-rule:nonzero;fill:rgb(0%,0%,0%);fill-opacity:1;" d="M 121.792969 22.582031 C 122.671875 22.550781 123.546875 22.683594 124.402344 22.976562 C 124.996094 23.175781 125.550781 23.546875 126.035156 24.070312 C 126.410156 24.496094 126.691406 25.058594 126.851562 25.691406 C 127.003906 26.320312 127.054688 26.988281 127.003906 27.648438 C 127.007812 28.257812 126.925781 28.863281 126.765625 29.4375 L 121.550781 47.316406 L 116.402344 47.316406 L 117.953125 41.785156 L 115.78125 41.785156 L 114.183594 47.316406 L 108.914062 47.316406 L 114.710938 27.398438 C 114.902344 26.679688 115.179688 26.011719 115.523438 25.414062 C 116.03125 24.414062 116.761719 23.671875 117.601562 23.296875 C 118.171875 23.027344 118.765625 22.84375 119.363281 22.75 C 120.167969 22.625 120.980469 22.566406 121.792969 22.582031 Z M 121.242188 30.066406 C 121.367188 29.75 121.375 29.367188 121.265625 29.039062 C 121.152344 28.75 120.929688 28.582031 120.691406 28.609375 C 120.386719 28.621094 120.089844 28.769531 119.847656 29.039062 C 119.582031 29.300781 119.371094 29.652344 119.234375 30.066406 L 117.761719 35.054688 L 119.835938 35.054688 Z M 121.242188 30.066406 "/>
<path style=" stroke:none;fill-rule:nonzero;fill:rgb(0%,0%,0%);fill-opacity:1;" d="M 141.792969 28.601562 L 137.527344 28.601562 L 132.042969 47.316406 L 126.941406 47.316406 L 132.425781 28.601562 L 128.285156 28.601562 L 129.917969 22.972656 L 143.4375 22.972656 Z M 141.792969 28.601562 "/>
<path style=" stroke:none;fill-rule:nonzero;fill:rgb(0%,0%,0%);fill-opacity:1;" d="M 154.691406 24.628906 C 155.535156 25.996094 155.75 27.953125 155.335938 30.492188 C 155.332031 30.574219 155.320312 30.65625 155.300781 30.738281 C 155.285156 30.824219 155.265625 30.90625 155.242188 30.988281 C 155.140625 31.476562 154.886719 31.878906 154.550781 32.082031 C 154.203125 32.285156 153.832031 32.382812 153.453125 32.378906 L 149.207031 32.378906 L 149.875 30.058594 C 150.003906 29.742188 150.007812 29.355469 149.886719 29.03125 C 149.761719 28.738281 149.523438 28.570312 149.277344 28.601562 C 148.972656 28.566406 148.667969 28.675781 148.417969 28.917969 C 148.1875 29.25 148.015625 29.652344 147.917969 30.09375 L 144.9375 40.359375 C 144.699219 41.199219 144.632812 41.742188 144.734375 41.984375 C 144.835938 42.226562 145.039062 42.347656 145.34375 42.347656 C 145.648438 42.367188 145.945312 42.253906 146.203125 42.03125 C 146.46875 41.742188 146.667969 41.347656 146.777344 40.898438 L 147.46875 38.515625 L 151.828125 38.515625 C 152.125 38.488281 152.417969 38.589844 152.664062 38.8125 C 152.855469 39.011719 152.867188 39.363281 152.734375 39.871094 C 152.691406 40.042969 152.640625 40.207031 152.582031 40.367188 C 152.523438 40.53125 152.472656 40.695312 152.425781 40.863281 C 152.070312 42.125 151.628906 43.335938 151.101562 44.476562 C 150.730469 45.292969 150.246094 45.996094 149.675781 46.546875 C 149.148438 47.027344 148.554688 47.34375 147.933594 47.472656 C 147.195312 47.628906 146.449219 47.699219 145.703125 47.6875 L 143.296875 47.6875 C 142.632812 47.691406 141.972656 47.554688 141.339844 47.273438 C 140.75 47.023438 140.226562 46.53125 139.839844 45.859375 C 139.429688 45.09375 139.207031 44.171875 139.195312 43.222656 C 139.148438 42.128906 139.351562 40.765625 139.808594 39.132812 L 140.714844 35.984375 C 140.988281 35.058594 141.28125 34.042969 141.597656 32.9375 C 141.914062 31.832031 142.234375 30.742188 142.558594 29.667969 C 142.847656 28.644531 143.222656 27.667969 143.679688 26.769531 C 144.109375 25.917969 144.632812 25.164062 145.226562 24.535156 C 145.820312 23.914062 146.480469 23.425781 147.183594 23.09375 C 147.933594 22.742188 148.71875 22.570312 149.511719 22.582031 L 150.558594 22.582031 C 152.472656 22.582031 153.851562 23.261719 154.691406 24.628906 Z M 154.691406 24.628906 "/>
<path style=" stroke:none;fill-rule:nonzero;fill:rgb(0%,0%,0%);fill-opacity:1;" d="M 173.984375 22.972656 L 166.859375 47.316406 L 161.757812 47.316406 L 164.234375 38.835938 L 160.734375 38.835938 L 158.246094 47.316406 L 153.144531 47.316406 L 160.273438 22.972656 L 165.375 22.972656 L 162.707031 32.113281 L 166.210938 32.113281 L 168.882812 22.972656 Z M 173.984375 22.972656 "/>
<path style=" stroke:none;fill-rule:evenodd;fill:rgb(0%,0%,0%);fill-opacity:1;" d="M 187.785156 7.660156 C 187.304688 6.441406 187.300781 5.191406 187.378906 3.914062 C 187.359375 3.601562 187.316406 3.292969 187.246094 2.992188 C 187.226562 2.871094 187.230469 2.746094 187.269531 2.632812 C 187.636719 1.96875 187.714844 1.054688 188.210938 0.507812 C 188.332031 0.355469 188.480469 0.246094 188.636719 0.179688 C 188.964844 0.0546875 189.300781 -0.00390625 189.640625 -0.00390625 C 189.917969 0.0585938 190.1875 0.195312 190.425781 0.398438 C 190.5 0.449219 190.511719 0.679688 190.53125 0.734375 C 190.761719 1.019531 190.957031 1.234375 191.140625 1.472656 C 191.195312 1.535156 191.230469 1.617188 191.246094 1.710938 C 191.246094 2.527344 191.617188 3.355469 191.195312 4.152344 C 191.179688 4.210938 191.179688 4.273438 191.195312 4.328125 C 191.304688 4.664062 191.3125 5.042969 191.214844 5.382812 C 191.117188 5.722656 190.925781 5.996094 190.683594 6.136719 C 190.628906 6.179688 190.585938 6.25 190.566406 6.335938 C 190.535156 6.492188 190.507812 6.648438 190.492188 6.808594 C 190.40625 7.410156 190.628906 7.832031 191.058594 8.019531 C 191.242188 8.101562 191.390625 8.34375 191.570312 8.457031 C 192.066406 8.773438 192.5625 9.09375 193.074219 9.351562 C 193.820312 9.71875 194.585938 10 195.320312 10.375 C 195.992188 10.714844 196.644531 11.101562 197.386719 10.941406 C 197.457031 10.9375 197.527344 10.957031 197.589844 11 C 198 11.21875 198.03125 11.195312 198.125 10.625 C 198.144531 10.523438 198.160156 10.417969 198.175781 10.308594 C 198.335938 9.347656 198.175781 8.890625 197.542969 8.429688 C 197.433594 8.347656 197.273438 8.144531 197.285156 8.011719 C 197.335938 7.414062 197.113281 6.964844 196.921875 6.496094 C 196.894531 6.4375 196.871094 6.375 196.851562 6.3125 C 196.777344 6.066406 196.71875 5.777344 196.945312 5.648438 C 197.054688 5.585938 197.222656 5.695312 197.367188 5.722656 C 197.644531 5.796875 197.929688 5.867188 198.207031 5.953125 C 198.359375 5.996094 198.507812 6.058594 198.652344 6.136719 C 198.753906 6.183594 198.839844 6.269531 198.898438 6.390625 C 199.078125 6.921875 199.304688 7.449219 199.261719 8.09375 C 199.234375 8.703125 199.324219 9.316406 199.527344 9.859375 C 199.789062 10.699219 199.933594 11.5625 199.785156 12.476562 C 199.773438 12.53125 199.769531 12.585938 199.757812 12.640625 C 199.519531 13.878906 199.519531 13.882812 198.601562 13.957031 C 198.265625 13.980469 197.925781 13.957031 197.582031 13.992188 C 197.496094 14.015625 197.414062 14.082031 197.359375 14.179688 C 197.066406 14.617188 196.632812 14.816406 196.210938 14.707031 C 195.992188 14.613281 195.78125 14.496094 195.574219 14.359375 C 195.144531 14.183594 194.703125 14.074219 194.273438 13.871094 C 193.6875 13.613281 193.128906 13.808594 192.8125 14.550781 C 192.609375 15.085938 192.445312 15.648438 192.320312 16.226562 C 192.253906 16.492188 192.269531 16.792969 192.207031 17.078125 C 192.027344 17.980469 191.921875 18.90625 191.894531 19.84375 C 191.851562 20.289062 191.785156 20.726562 191.6875 21.152344 C 191.539062 21.964844 191.390625 22.777344 191.222656 23.582031 C 191.089844 24.222656 190.945312 24.839844 191.144531 25.515625 C 191.199219 25.703125 191.089844 25.972656 191.074219 26.207031 C 191.007812 27.058594 190.980469 27.933594 190.882812 28.785156 C 190.824219 29.15625 190.707031 29.507812 190.542969 29.808594 C 190.183594 30.554688 189.800781 31.277344 189.421875 32.003906 C 189.367188 32.101562 189.308594 32.191406 189.242188 32.273438 C 189.078125 32.488281 188.953125 32.5 188.902344 32.136719 C 188.539062 32.585938 188.1875 33.058594 187.859375 33.554688 C 187.460938 34.210938 187.09375 34.898438 186.761719 35.617188 C 186.652344 35.902344 186.605469 36.21875 186.617188 36.539062 C 186.617188 37.332031 186.363281 38.023438 186.097656 38.671875 C 185.703125 39.625 185.257812 40.535156 184.765625 41.398438 C 184.332031 42.167969 183.8125 42.847656 183.335938 43.570312 C 183.277344 43.660156 183.222656 43.757812 183.160156 43.851562 C 182.523438 44.667969 182.34375 45.691406 182.414062 46.847656 C 182.457031 47.601562 182.019531 47.980469 181.511719 47.792969 C 181.246094 47.675781 180.964844 47.65625 180.695312 47.738281 C 180.398438 47.875 180.304688 47.625 180.203125 47.453125 C 180.105469 47.261719 180.0625 47.019531 180.089844 46.785156 C 180.273438 45.480469 180.800781 44.453125 181.4375 43.488281 C 182.09375 42.476562 182.492188 41.191406 182.574219 39.832031 C 182.621094 38.957031 182.894531 38.132812 183.339844 37.511719 C 183.613281 37.183594 183.777344 36.710938 183.785156 36.210938 C 183.785156 35.746094 184.019531 35.289062 184.125 34.824219 C 184.171875 34.5625 184.199219 34.292969 184.203125 34.023438 C 184.238281 33.066406 184.496094 32.148438 184.941406 31.414062 C 185.042969 31.222656 185.136719 31.023438 185.222656 30.820312 L 185.15625 30.746094 C 184.90625 31.113281 184.648438 31.46875 184.40625 31.847656 C 184.25 32.085938 184.113281 32.355469 183.964844 32.609375 C 183.859375 32.796875 183.683594 32.886719 183.515625 32.84375 C 183.207031 32.84375 182.847656 32.734375 182.546875 33.128906 C 182.042969 33.753906 181.601562 34.46875 181.238281 35.257812 C 180.945312 35.996094 180.414062 36.496094 179.808594 36.597656 C 179.515625 36.65625 179.261719 37 178.929688 36.882812 C 178.84375 36.847656 178.75 36.867188 178.667969 36.828125 C 178.460938 36.71875 178.226562 36.730469 178.023438 36.859375 C 177.722656 37.066406 177.355469 36.960938 177.136719 36.605469 C 176.917969 36.269531 176.886719 35.773438 177.0625 35.390625 C 177.410156 34.496094 177.746094 33.597656 178.136719 32.742188 C 178.289062 32.4375 178.503906 32.195312 178.746094 32.039062 C 178.921875 31.960938 179.058594 31.777344 179.125 31.542969 C 179.222656 31.144531 179.332031 30.75 179.425781 30.355469 C 179.4375 30.320312 179.453125 30.285156 179.46875 30.253906 L 180.554688 27.652344 C 180.597656 27.566406 180.628906 27.46875 180.648438 27.367188 C 180.734375 26.386719 181.148438 25.683594 181.644531 25.039062 C 182.105469 24.457031 182.445312 23.710938 182.617188 22.878906 C 182.710938 22.511719 182.828125 22.160156 182.960938 21.820312 C 182.976562 21.785156 182.988281 21.746094 182.988281 21.703125 C 182.96875 20.765625 183.472656 20.371094 183.945312 19.960938 C 184.097656 19.855469 184.203125 19.65625 184.234375 19.425781 C 184.3125 19.039062 184.449219 18.683594 184.640625 18.382812 C 184.792969 18.167969 184.863281 17.867188 184.824219 17.570312 C 184.765625 17.253906 184.722656 16.933594 184.691406 16.613281 C 184.667969 16.1875 184.691406 15.761719 184.652344 15.320312 C 184.3125 15.9375 183.859375 16.40625 183.675781 17.171875 C 183.621094 17.320312 183.519531 17.417969 183.402344 17.4375 C 183.191406 17.441406 182.996094 17.59375 182.878906 17.839844 C 182.226562 18.828125 181.601562 19.84375 180.753906 20.5625 C 179.90625 21.277344 179.140625 22.085938 178.347656 22.878906 C 178.226562 23 178.171875 23.25 178.082031 23.445312 C 177.898438 23.882812 177.695312 24.300781 177.472656 24.703125 C 177.316406 24.960938 177.210938 25.414062 176.859375 25.214844 C 176.84375 25.253906 176.828125 25.296875 176.820312 25.339844 C 176.804688 25.519531 177.058594 25.734375 176.792969 25.878906 C 176.492188 26.039062 176.121094 25.859375 176.027344 25.546875 C 175.976562 25.371094 175.886719 25.21875 175.847656 25.042969 C 175.824219 24.886719 175.816406 24.730469 175.820312 24.570312 C 175.75 24.675781 175.667969 24.792969 175.59375 24.914062 C 175.449219 25.136719 175.320312 25.378906 175.164062 25.582031 C 175.117188 25.644531 175.011719 25.617188 174.929688 25.628906 C 174.929688 25.53125 174.890625 25.410156 174.917969 25.347656 C 175.023438 25.070312 175.140625 24.808594 175.277344 24.558594 C 175.703125 23.789062 176.058594 22.933594 176.742188 22.507812 C 176.960938 22.351562 177.15625 22.140625 177.320312 21.886719 C 178.289062 20.449219 179.246094 18.992188 180.207031 17.542969 C 180.367188 17.304688 180.527344 17.078125 180.707031 16.820312 C 180.441406 16.539062 180.550781 16.285156 180.738281 15.992188 C 181.410156 14.925781 182.054688 13.832031 182.71875 12.765625 C 183.355469 11.75 183.90625 10.601562 184.734375 9.882812 C 185.535156 9.1875 186.40625 8.652344 187.246094 8.046875 C 187.414062 7.894531 187.582031 7.792969 187.785156 7.660156 Z M 187.785156 7.660156 "/>
<path style=" stroke:none;fill-rule:evenodd;fill:rgb(0%,0%,0%);fill-opacity:1;" d="M 176.878906 43.429688 C 176.875 45.410156 175.714844 47.011719 174.289062 47.011719 C 172.863281 47.011719 171.710938 45.40625 171.707031 43.425781 C 171.703125 41.445312 172.855469 39.835938 174.28125 39.828125 C 174.96875 39.824219 175.628906 40.203125 176.117188 40.878906 C 176.605469 41.554688 176.878906 42.472656 176.878906 43.429688 Z M 176.878906 43.429688 "/>
</g>
</svg>
